<svg xmlns="http://www.w3.org/2000/svg" aria-hidden="true" style="position:absolute;width:0;height:0;overflow:hidden">
    <defs>
        <symbol id="truck" viewBox="0 0 25 25">
            <path
                d="m25 14.063-3.125-6.25h-4.688V4.688c0-.859-.703-1.563-1.563-1.563H1.561c-.859 0-1.563.703-1.563 1.563v12.5l1.563 1.563h1.982a3.125 3.125 0 1 0 5.412 0h8.651a3.125 3.125 0 1 0 5.412 0H25v-4.688zm-7.812 0V9.375h3.239l2.344 4.688h-5.583z" />
        </symbol>
        <symbol id="bi_grid" viewBox="0 0 25 25">
            <path
                d="M1.563 3.906a2.343 2.343 0 0 1 2.343-2.343h4.688a2.343 2.343 0 0 1 2.343 2.343v4.688a2.343 2.343 0 0 1-2.343 2.343H3.906a2.343 2.343 0 0 1-2.343-2.343V3.906zm2.343-.781a.778.778 0 0 0-.781.781v4.688a.778.778 0 0 0 .781.781h4.688a.778.778 0 0 0 .781-.781V3.906a.778.778 0 0 0-.781-.781H3.906zm10.157.781a2.343 2.343 0 0 1 2.343-2.343h4.688a2.343 2.343 0 0 1 2.343 2.343v4.688a2.343 2.343 0 0 1-2.343 2.343h-4.688a2.343 2.343 0 0 1-2.343-2.343V3.906zm2.343-.781a.778.778 0 0 0-.781.781v4.688a.778.778 0 0 0 .781.781h4.688a.778.778 0 0 0 .781-.781V3.906a.778.778 0 0 0-.781-.781h-4.688zM1.563 16.406a2.343 2.343 0 0 1 2.343-2.343h4.688a2.343 2.343 0 0 1 2.343 2.343v4.688a2.343 2.343 0 0 1-2.343 2.343H3.906a2.343 2.343 0 0 1-2.343-2.343v-4.688zm2.343-.781a.778.778 0 0 0-.781.781v4.688a.778.778 0 0 0 .781.781h4.688a.778.778 0 0 0 .781-.781v-4.688a.778.778 0 0 0-.781-.781H3.906zm10.157.781a2.343 2.343 0 0 1 2.343-2.343h4.688a2.343 2.343 0 0 1 2.343 2.343v4.688a2.343 2.343 0 0 1-2.343 2.343h-4.688a2.343 2.343 0 0 1-2.343-2.343v-4.688zm2.343-.781a.778.778 0 0 0-.781.781v4.688a.778.778 0 0 0 .781.781h4.688a.778.778 0 0 0 .781-.781v-4.688a.778.778 0 0 0-.781-.781h-4.688z" />
        </symbol>
        <symbol id="bi_grid-1x2" viewBox="0 0 25 25">
            <path
                d="M9.375 1.563H1.562v21.875h7.813V1.563zm14.063 0h-7.813v7.813h7.813V1.563zm0 14.062v7.813h-7.813v-7.813h7.813zM0 1.563A1.564 1.564 0 0 1 1.563 0h7.813a1.564 1.564 0 0 1 1.563 1.563v21.875a1.564 1.564 0 0 1-1.563 1.563H1.563A1.564 1.564 0 0 1 0 23.438V1.563zm14.063 0A1.564 1.564 0 0 1 15.626 0h7.813a1.564 1.564 0 0 1 1.563 1.563v7.813a1.564 1.564 0 0 1-1.563 1.563h-7.813a1.564 1.564 0 0 1-1.563-1.563V1.563zm1.562 12.5a1.564 1.564 0 0 0-1.563 1.563v7.813a1.564 1.564 0 0 0 1.563 1.563h7.813a1.564 1.564 0 0 0 1.563-1.563v-7.813a1.564 1.564 0 0 0-1.563-1.563h-7.813z" />
        </symbol>
        <symbol id="bi_grid-3x3-gap" viewBox="0 0 25 25">
            <path
                d="M6.25 3.125V6.25H3.125V3.125H6.25zm1.563 18.75V18.75a1.564 1.564 0 0 0-1.563-1.563H3.125a1.564 1.564 0 0 0-1.563 1.563v3.125a1.564 1.564 0 0 0 1.563 1.563H6.25a1.564 1.564 0 0 0 1.563-1.563zm0-7.812v-3.125A1.564 1.564 0 0 0 6.25 9.375H3.125a1.564 1.564 0 0 0-1.563 1.563v3.125a1.564 1.564 0 0 0 1.563 1.563H6.25a1.564 1.564 0 0 0 1.563-1.563zm0-7.813V3.125A1.564 1.564 0 0 0 6.25 1.562H3.125a1.564 1.564 0 0 0-1.563 1.563V6.25a1.564 1.564 0 0 0 1.563 1.563H6.25A1.564 1.564 0 0 0 7.813 6.25zm7.812 15.625V18.75a1.564 1.564 0 0 0-1.563-1.563h-3.125a1.564 1.564 0 0 0-1.563 1.563v3.125a1.564 1.564 0 0 0 1.563 1.563h3.125a1.564 1.564 0 0 0 1.563-1.563zm0-7.812v-3.125a1.564 1.564 0 0 0-1.563-1.563h-3.125a1.564 1.564 0 0 0-1.563 1.563v3.125a1.564 1.564 0 0 0 1.563 1.563h3.125a1.564 1.564 0 0 0 1.563-1.563zm0-7.813V3.125a1.564 1.564 0 0 0-1.563-1.563h-3.125a1.564 1.564 0 0 0-1.563 1.563V6.25a1.564 1.564 0 0 0 1.563 1.563h3.125a1.564 1.564 0 0 0 1.563-1.563zm-1.562-3.125V6.25h-3.125V3.125h3.125zm7.812 0V6.25H18.75V3.125h3.125zM6.25 10.938v3.125H3.125v-3.125H6.25zm7.813 0v3.125h-3.125v-3.125h3.125zm7.812 0H18.75v3.125h3.125v-3.125zM6.25 18.75v3.125H3.125V18.75H6.25zm7.813 0v3.125h-3.125V18.75h3.125zm7.812 0v3.125H18.75V18.75h3.125zM18.75 1.563a1.564 1.564 0 0 0-1.563 1.563v3.125a1.564 1.564 0 0 0 1.563 1.563h3.125a1.564 1.564 0 0 0 1.563-1.563V3.126a1.564 1.564 0 0 0-1.563-1.563H18.75zm-1.562 9.375a1.564 1.564 0 0 1 1.563-1.563h3.125a1.564 1.564 0 0 1 1.563 1.563v3.125a1.564 1.564 0 0 1-1.563 1.563h-3.125a1.564 1.564 0 0 1-1.563-1.563v-3.125zm1.562 6.25a1.564 1.564 0 0 0-1.563 1.563v3.125a1.564 1.564 0 0 0 1.563 1.563h3.125a1.564 1.564 0 0 0 1.563-1.563v-3.125a1.564 1.564 0 0 0-1.563-1.563H18.75z" />
        </symbol>
        <symbol id="kitchen" viewBox="0 0 25 25">
            <path
                d="M.781 9.375a.778.778 0 0 0-.609.292.777.777 0 0 0-.154.657L2.599 21.94A3.903 3.903 0 0 0 6.412 25h9.05a3.911 3.911 0 0 0 3.813-3.06l.205-.922a4.686 4.686 0 0 0 4.858-7.058 4.685 4.685 0 0 0-2.827-2.089l.345-1.547a.777.777 0 0 0-.424-.872.789.789 0 0 0-.338-.077H.781zm19.532 10.156c-.165 0-.33-.013-.494-.039l1.355-6.091a3.124 3.124 0 0 1 2.227 3.438 3.127 3.127 0 0 1-3.088 2.692zM4.125 21.602l-2.37-10.664h18.366l-2.37 10.664a2.345 2.345 0 0 1-2.287 1.836h-9.05a2.34 2.34 0 0 1-2.287-1.836zM6.875 1.25l-.005.006-.022.03c-.114.156-.22.318-.319.484a3.13 3.13 0 0 0-.22.417c-.041.094-.053.144-.058.161v.006a.948.948 0 0 0 .142.388c.117.208.278.425.481.695l.016.019c.184.247.406.542.578.848.175.313.344.711.344 1.164 0 .294-.102.575-.186.772-.09.209-.196.412-.316.606a7.9 7.9 0 0 1-.395.597l-.028.039-.008.013-.003.003a.778.778 0 0 1-1.094.157.778.778 0 0 1-.157-1.094l.005-.006.022-.03c.114-.156.22-.318.319-.484a3.13 3.13 0 0 0 .22-.417c.041-.094.053-.144.058-.161a.944.944 0 0 0-.141-.394 6.156 6.156 0 0 0-.483-.695l-.016-.019a7.87 7.87 0 0 1-.578-.848 2.394 2.394 0 0 1-.344-1.164c0-.294.102-.575.186-.772.092-.216.209-.428.316-.606.124-.204.256-.403.395-.597l.039-.055A.778.778 0 0 1 6.717.156a.778.778 0 0 1 .157 1.094zm4.688 0-.005.006-.022.03c-.114.156-.22.318-.319.484a3.13 3.13 0 0 0-.22.417c-.041.094-.053.144-.058.161v.006a.948.948 0 0 0 .142.388c.117.208.278.425.481.695l.016.019c.184.247.406.542.578.848.175.313.344.711.344 1.164 0 .294-.102.575-.186.772-.09.209-.196.412-.316.606a7.9 7.9 0 0 1-.395.597l-.028.039-.008.013-.003.003a.778.778 0 0 1-1.094.157.778.778 0 0 1-.157-1.094l.005-.006.022-.03c.114-.156.22-.318.319-.484a3.13 3.13 0 0 0 .22-.417c.041-.094.053-.144.058-.161a.944.944 0 0 0-.141-.394 6.156 6.156 0 0 0-.483-.695l-.016-.019a7.87 7.87 0 0 1-.578-.848 2.394 2.394 0 0 1-.344-1.164c0-.294.102-.575.186-.772.092-.216.209-.428.316-.606.124-.204.256-.403.395-.597l.039-.055a.778.778 0 0 1 1.094-.157.778.778 0 0 1 .157 1.094zm4.687 0-.005.006-.022.03c-.114.156-.22.318-.319.484a3.13 3.13 0 0 0-.22.417c-.041.094-.053.144-.058.161v.006a.948.948 0 0 0 .142.388c.117.208.278.425.481.695l.016.019c.184.247.406.542.578.848.175.313.344.711.344 1.164 0 .294-.102.575-.186.772-.09.209-.196.412-.316.606a7.595 7.595 0 0 1-.394.597l-.03.039-.008.013-.003.003a.778.778 0 0 1-1.094.157.778.778 0 0 1-.157-1.094l.005-.006.022-.03c.114-.156.22-.318.319-.484a3.13 3.13 0 0 0 .22-.417c.041-.094.053-.144.058-.161a.944.944 0 0 0-.141-.394 6.156 6.156 0 0 0-.483-.695l-.016-.019a7.87 7.87 0 0 1-.578-.848 2.394 2.394 0 0 1-.344-1.164c0-.294.102-.575.186-.772.092-.216.209-.428.316-.606.124-.204.256-.403.395-.597l.039-.055a.778.778 0 0 1 1.094-.157.778.778 0 0 1 .157 1.094z" />
        </symbol>
        <symbol id="diagram" viewBox="0 0 25 25">
            <path
                d="M9.375 5.469a2.343 2.343 0 0 1 2.343-2.343h1.563a2.343 2.343 0 0 1 2.343 2.343v1.563a2.343 2.343 0 0 1-2.343 2.343v1.563h8.594a.778.778 0 0 1 .781.781v1.563a.778.778 0 0 1-.781.781.778.778 0 0 1-.781-.781v-.781h-7.813v.781a.778.778 0 0 1-.781.781.778.778 0 0 1-.781-.781v-.781H3.906v.781a.778.778 0 0 1-.781.781.778.778 0 0 1-.781-.781v-1.563a.778.778 0 0 1 .781-.781h8.594V9.375a2.343 2.343 0 0 1-2.343-2.343V5.469zm3.906 2.344a.778.778 0 0 0 .781-.781V5.469a.778.778 0 0 0-.781-.781h-1.563a.778.778 0 0 0-.781.781v1.563a.778.778 0 0 0 .781.781h1.563zM0 17.969a2.343 2.343 0 0 1 2.343-2.343h1.563a2.343 2.343 0 0 1 2.343 2.343v1.563a2.343 2.343 0 0 1-2.343 2.343H2.343A2.343 2.343 0 0 1 0 19.532v-1.563zm2.344-.781a.778.778 0 0 0-.781.781v1.563a.778.778 0 0 0 .781.781h1.563a.778.778 0 0 0 .781-.781v-1.563a.778.778 0 0 0-.781-.781H2.344zm7.031.781a2.343 2.343 0 0 1 2.343-2.343h1.563a2.343 2.343 0 0 1 2.343 2.343v1.563a2.343 2.343 0 0 1-2.343 2.343h-1.563a2.343 2.343 0 0 1-2.343-2.343v-1.563zm2.344-.781a.778.778 0 0 0-.781.781v1.563a.778.778 0 0 0 .781.781h1.563a.778.778 0 0 0 .781-.781v-1.563a.778.778 0 0 0-.781-.781h-1.563zm7.031.781a2.343 2.343 0 0 1 2.343-2.343h1.563a2.343 2.343 0 0 1 2.343 2.343v1.563a2.343 2.343 0 0 1-2.343 2.343h-1.563a2.343 2.343 0 0 1-2.343-2.343v-1.563zm2.344-.781a.778.778 0 0 0-.781.781v1.563a.778.778 0 0 0 .781.781h1.563a.778.778 0 0 0 .781-.781v-1.563a.778.778 0 0 0-.781-.781h-1.563z" />
        </symbol>
        <symbol id="gas" viewBox="0 0 25 25">
            <path
                d="M2.543 3.802c-0.106 0.482-0.154 1.134-0.154 2.032v13.333c0 0.898 0.048 1.549 0.154 2.032 0.103 0.471 0.248 0.714 0.396 0.863s0.392 0.293 0.863 0.396c0.482 0.106 1.134 0.154 2.032 0.154h13.333c0.898 0 1.549-0.048 2.031-0.154 0.471-0.103 0.714-0.248 0.863-0.396s0.293-0.392 0.396-0.863c0.106-0.482 0.154-1.134 0.154-2.032v-13.333c0-0.898-0.048-1.549-0.154-2.032-0.103-0.471-0.248-0.714-0.396-0.863s-0.392-0.293-0.863-0.396c-0.482-0.106-1.134-0.154-2.031-0.154h-13.333c-0.898 0-1.549 0.048-2.032 0.154-0.471 0.103-0.714 0.248-0.863 0.396s-0.293 0.392-0.396 0.863zM3.373 0.589c0.696-0.153 1.519-0.201 2.46-0.201h13.333c0.941 0 1.765 0.048 2.46 0.201 0.707 0.155 1.345 0.432 1.848 0.935s0.78 1.141 0.935 1.848c0.153 0.696 0.2 1.519 0.2 2.46v13.333c0 0.941-0.048 1.765-0.2 2.46-0.155 0.707-0.432 1.345-0.935 1.848s-1.141 0.78-1.848 0.935c-0.696 0.153-1.52 0.2-2.46 0.2h-13.333c-0.941 0-1.765-0.048-2.46-0.2-0.707-0.155-1.345-0.432-1.848-0.935s-0.78-1.141-0.935-1.848c-0.153-0.696-0.201-1.52-0.201-2.46v-13.333c0-0.941 0.048-1.765 0.201-2.46 0.155-0.707 0.432-1.345 0.935-1.848s1.141-0.78 1.848-0.935zM4.833 20.278c0-0.552 0.448-1 1-1h4.444c0.552 0 1 0.448 1 1s-0.448 1-1 1h-4.444c-0.552 0-1-0.448-1-1zM19.167 19.278c0.552 0 1 0.448 1 1v0.010c0 0.552-0.448 1-1 1s-1-0.448-1-1v-0.010c0-0.552 0.448-1 1-1z">
            </path>
            <path
                d="M12.5 6.833c-1.902 0-3.444 1.542-3.444 3.444s1.542 3.445 3.444 3.445c1.902 0 3.444-1.542 3.444-3.445s-1.542-3.444-3.444-3.444zM7.056 10.278c0-3.007 2.438-5.444 5.444-5.444s5.444 2.438 5.444 5.444c0 3.007-2.438 5.445-5.444 5.445s-5.444-2.438-5.444-5.445z">
            </path>
            <path
                d="M12.5 3.722c0.552 0 1 0.448 1 1v1.667c0 0.552-0.448 1-1 1s-1-0.448-1-1v-1.667c0-0.552 0.448-1 1-1zM5.944 10.278c0-0.552 0.448-1 1-1h1.667c0.552 0 1 0.448 1 1s-0.448 1-1 1h-1.667c-0.552 0-1-0.448-1-1zM15.389 10.278c0-0.552 0.448-1 1-1h1.667c0.552 0 1 0.448 1 1s-0.448 1-1 1h-1.667c-0.552 0-1-0.448-1-1zM12.5 13.167c0.552 0 1 0.448 1 1v1.667c0 0.552-0.448 1-1 1s-1-0.448-1-1v-1.667c0-0.552 0.448-1 1-1z">
            </path>
        </symbol>
        <symbol id="water" viewBox="0 0 18 25">
            <path
                d="M8.929 2.35c-0.924 1.094-2.647 3.241-4.174 5.728-1.65 2.687-2.969 5.613-2.969 7.994 0 2.276 0.712 4.041 1.907 5.236s2.96 1.907 5.236 1.907c2.276 0 4.041-0.712 5.236-1.907s1.907-2.96 1.907-5.236c0-2.38-1.319-5.306-2.969-7.994-1.527-2.487-3.25-4.634-4.173-5.728zM8.276 0.585c0.205-0.094 0.428-0.143 0.653-0.143s0.448 0.049 0.653 0.143c0.205 0.094 0.387 0.232 0.534 0.403l0.001 0.001c0.897 1.050 2.812 3.393 4.508 6.155 1.672 2.724 3.233 6.016 3.233 8.928 0 2.656-0.84 4.908-2.43 6.498s-3.843 2.43-6.498 2.43-4.908-0.84-6.498-2.43c-1.59-1.59-2.43-3.843-2.43-6.498 0-2.911 1.561-6.204 3.233-8.928 1.696-2.762 3.611-5.105 4.508-6.155l0-0.001c0.147-0.171 0.329-0.309 0.534-0.403z">
            </path>
            <path
                d="M13.839 15.625c0.493 0 0.893 0.4 0.893 0.893 0 1.302-0.517 2.551-1.438 3.472s-2.17 1.438-3.472 1.438c-0.493 0-0.893-0.4-0.893-0.893s0.4-0.893 0.893-0.893c0.829 0 1.624-0.329 2.21-0.915s0.915-1.381 0.915-2.21c0-0.493 0.4-0.893 0.893-0.893z">
            </path>
        </symbol>
        <symbol id="microwave" viewBox="0 0 30 25">
            <path
                d="M4.333 2.333c-0.92 0-1.667 0.746-1.667 1.667v14.667c0 0.921 0.746 1.667 1.667 1.667h21.333c0.92 0 1.667-0.746 1.667-1.667v-14.667c0-0.92-0.746-1.667-1.667-1.667h-21.333zM0.667 4c0-2.025 1.642-3.667 3.667-3.667h21.333c2.025 0 3.667 1.642 3.667 3.667v14.667c0 2.025-1.642 3.667-3.667 3.667h-21.333c-2.025 0-3.667-1.642-3.667-3.667v-14.667z">
            </path>
            <path
                d="M8.333 7.667c-0.184 0-0.333 0.149-0.333 0.333v6.667c0 0.184 0.149 0.333 0.333 0.333h8c0.184 0 0.333-0.149 0.333-0.333v-6.667c0-0.184-0.149-0.333-0.333-0.333h-8zM6 8c0-1.289 1.045-2.333 2.333-2.333h8c1.289 0 2.333 1.045 2.333 2.333v6.667c0 1.289-1.045 2.333-2.333 2.333h-8c-1.289 0-2.333-1.045-2.333-2.333v-6.667z">
            </path>
            <path
                d="M23 5.667c0.552 0 1 0.448 1 1v9.333c0 0.552-0.448 1-1 1s-1-0.448-1-1v-9.333c0-0.552 0.448-1 1-1zM7 20.333c0.552 0 1 0.448 1 1v2.667c0 0.552-0.448 1-1 1s-1-0.448-1-1v-2.667c0-0.552 0.448-1 1-1zM23 20.333c0.552 0 1 0.448 1 1v2.667c0 0.552-0.448 1-1 1s-1-0.448-1-1v-2.667c0-0.552 0.448-1 1-1z">
            </path>
        </symbol>
        <symbol id="bathroom" viewBox="0 0 25 25">
            <path
                d="M6.25 23.047a1.17 1.17 0 0 1-.724 1.083 1.171 1.171 0 1 1-.448-2.255 1.172 1.172 0 0 1 1.172 1.172zm1.953-4.297a1.17 1.17 0 0 0-1.083.724 1.171 1.171 0 1 0 2.255.448 1.172 1.172 0 0 0-1.172-1.172zm-6.25 0a1.17 1.17 0 0 0-1.083.724 1.171 1.171 0 1 0 1.082-.724zm3.125-3.125a1.17 1.17 0 0 0-1.083.724 1.171 1.171 0 1 0 2.255.448 1.172 1.172 0 0 0-1.172-1.172zM25 3.906a.778.778 0 0 1-.781.781h-2.802l-2.72 2.721-2.115 12.382a1.565 1.565 0 0 1-1.909 1.259 1.559 1.559 0 0 1-.736-.414l-9.57-9.57a1.567 1.567 0 0 1-.383-1.582 1.565 1.565 0 0 1 1.232-1.064l12.377-2.116 2.949-2.949a.774.774 0 0 1 .553-.228h3.125a.778.778 0 0 1 .781.781zm-7.987 4.081L5.469 9.961l9.57 9.57 1.974-11.544z" />
        </symbol>
        <symbol id="refrigerator" viewBox="0 0 25 25">
            <path
                d="M18.49 7.292a.778.778 0 0 0-.781-.781.778.778 0 0 0-.781.781v2.083a.778.778 0 0 0 .781.781.778.778 0 0 0 .781-.781V7.292zm0 7.291a.778.778 0 0 0-.781-.781.778.778 0 0 0-.781.781v2.083a.778.778 0 0 0 .781.781.778.778 0 0 0 .781-.781v-2.083z" />
            <path
                d="M12.558 1.302h-.117c-1.915 0-3.431 0-4.618.159-1.221.165-2.209.51-2.99 1.29-.779.78-1.125 1.769-1.29 2.99-.159 1.188-.159 2.703-.159 4.618v3.242c0 1.915 0 3.431.159 4.618.165 1.221.51 2.209 1.29 2.99.479.478 1.035.793 1.676 1.003v.706c0 .431.35.781.781.781h1.042a.778.778 0 0 0 .781-.781v-.308c.945.048 2.047.048 3.327.048h.117c1.281 0 2.382 0 3.327-.048v.308c0 .431.35.781.781.781h1.042a.778.778 0 0 0 .781-.781v-.706c.641-.21 1.198-.525 1.676-1.003.779-.78 1.125-1.769 1.29-2.99.159-1.187.159-2.703.159-4.618V10.36c0-1.915 0-3.431-.159-4.618-.165-1.221-.51-2.209-1.29-2.99-.78-.779-1.769-1.125-2.99-1.29-1.187-.159-2.703-.159-4.618-.159zM5.94 3.856c.441-.441 1.045-.705 2.093-.846 1.071-.144 2.481-.146 4.468-.146s3.398.002 4.469.146c1.047.141 1.651.405 2.092.846s.705 1.045.846 2.093c.144 1.071.146 2.481.146 4.468v.781H4.95v-.781c0-1.986.002-3.397.146-4.469.141-1.047.405-1.651.846-2.092zm-.992 8.904h15.104v.781c0 1.986-.002 3.398-.146 4.469-.141 1.047-.405 1.651-.846 2.092s-1.045.705-2.093.846c-1.071.144-2.481.146-4.468.146s-3.397-.002-4.469-.146c-1.047-.141-1.651-.405-2.092-.846s-.705-1.045-.846-2.093c-.144-1.07-.146-2.481-.146-4.468v-.781z" />
        </symbol>
        <symbol id="TV" viewBox="0 0 25 25">
            <path
                d="M0 6.25s0-3.125 3.125-3.125h18.75S25 3.125 25 6.25v9.375s0 3.125-3.125 3.125h-6.25c0 1.042.13 1.823.391 2.344h1.172a.778.778 0 0 1 .781.781.778.778 0 0 1-.781.781H7.813a.778.778 0 0 1-.781-.781.778.778 0 0 1 .781-.781h1.172c.26-.521.391-1.302.391-2.344h-6.25s-3.125 0-3.125-3.125V6.25zm2.184-1.336c-.172.12-.308.282-.397.472a2.341 2.341 0 0 0-.225.88v9.359c0 .508.122.784.227.941.109.162.267.295.472.397.264.126.549.202.841.223l.039.002h18.734c.508 0 .784-.122.941-.227.172-.12.308-.282.397-.472.126-.264.202-.549.223-.841l.002-.039V6.25c0-.508-.122-.784-.227-.941a1.188 1.188 0 0 0-.472-.397 2.341 2.341 0 0 0-.88-.225H3.125c-.508 0-.784.122-.941.227z" />
        </symbol>
        <symbol id="AC" viewBox="0 0 25 25">
            <path
                d="M19.531 3.125a3.907 3.907 0 0 0-3.906 3.906.778.778 0 0 1-.781.781.778.778 0 0 1-.781-.781 5.466 5.466 0 0 1 3.376-5.052 5.469 5.469 0 1 1 2.094 10.522H.783a.778.778 0 0 1-.781-.781.778.778 0 0 1 .781-.781h18.75a3.907 3.907 0 0 0 0-7.812zM8.594 4.688a1.564 1.564 0 0 0-1.563 1.563.778.778 0 0 1-.781.781.778.778 0 0 1-.781-.781 3.12 3.12 0 0 1 1.929-2.887 3.127 3.127 0 0 1 4.261 2.277 3.12 3.12 0 0 1-1.329 3.208 3.128 3.128 0 0 1-1.736.527H.781A.778.778 0 0 1 0 8.595a.778.778 0 0 1 .781-.781h7.813a1.564 1.564 0 0 0 0-3.126zM0 14.844a.778.778 0 0 1 .781-.781h15.691a4.688 4.688 0 1 1-4.688 4.688.778.778 0 0 1 .781-.781.778.778 0 0 1 .781.781 3.12 3.12 0 0 0 1.929 2.887 3.127 3.127 0 0 0 4.261-2.277 3.12 3.12 0 0 0-1.329-3.208 3.128 3.128 0 0 0-1.736-.527H.78a.778.778 0 0 1-.781-.781z" />
        </symbol>
        <symbol id="radio" viewBox="0 0 25 25">
            <path
                d="M10.938 3.906c0-0.207 0.082-0.406 0.229-0.552s0.345-0.229 0.552-0.229h10.938c0.207 0 0.406 0.082 0.552 0.229s0.229 0.345 0.229 0.552v1.563c0 0.207-0.082 0.406-0.229 0.552s-0.345 0.229-0.552 0.229h-10.938c-0.207 0-0.406-0.082-0.552-0.229s-0.229-0.345-0.229-0.552v-1.563zM0 18.75c0-1.243 0.494-2.435 1.373-3.315s2.071-1.373 3.315-1.373 2.435 0.494 3.315 1.373c0.879 0.879 1.373 2.071 1.373 3.315s-0.494 2.435-1.373 3.315c-0.879 0.879-2.071 1.373-3.315 1.373s-2.435-0.494-3.315-1.373c-0.879-0.879-1.373-2.071-1.373-3.315zM10.938 16.406c0-0.207 0.082-0.406 0.229-0.552s0.345-0.229 0.552-0.229h10.938c0.207 0 0.406 0.082 0.552 0.229s0.229 0.345 0.229 0.552v1.563c0 0.207-0.082 0.406-0.229 0.552s-0.345 0.229-0.552 0.229h-10.938c-0.207 0-0.406-0.082-0.552-0.229s-0.229-0.345-0.229-0.552v-1.563zM10.938 8.594c0-0.207 0.082-0.406 0.229-0.552s0.345-0.229 0.552-0.229h7.813c0.207 0 0.406 0.082 0.552 0.229s0.229 0.345 0.229 0.552-0.082 0.406-0.229 0.552c-0.147 0.147-0.345 0.229-0.552 0.229h-7.813c-0.207 0-0.406-0.082-0.552-0.229s-0.229-0.345-0.229-0.552zM10.938 21.094c0-0.207 0.082-0.406 0.229-0.552s0.345-0.229 0.552-0.229h7.813c0.207 0 0.406 0.082 0.552 0.229s0.229 0.345 0.229 0.552-0.082 0.406-0.229 0.552c-0.147 0.147-0.345 0.229-0.552 0.229h-7.813c-0.207 0-0.406-0.082-0.552-0.229s-0.229-0.345-0.229-0.552zM4.688 1.563c-0.616 0-1.225 0.121-1.794 0.357s-1.085 0.581-1.521 1.016c-0.435 0.435-0.781 0.952-1.016 1.521s-0.357 1.178-0.357 1.794c0 0.616 0.121 1.225 0.357 1.794s0.581 1.085 1.016 1.521c0.435 0.435 0.952 0.781 1.521 1.016s1.178 0.357 1.794 0.357c1.243 0 2.435-0.494 3.315-1.373s1.373-2.071 1.373-3.315c0-1.243-0.494-2.435-1.373-3.315s-2.071-1.373-3.315-1.373zM4.688 8.594c-0.622 0-1.218-0.247-1.657-0.686s-0.686-1.036-0.686-1.657c0-0.622 0.247-1.218 0.686-1.657s1.036-0.686 1.657-0.686c0.622 0 1.218 0.247 1.657 0.686s0.686 1.036 0.686 1.657c0 0.622-0.247 1.218-0.686 1.657s-1.036 0.686-1.657 0.686z">
            </path>
        </symbol>
        <symbol id="petrol" viewBox="0 0 25 25">
            <path
                d="M4.688 3.906c0-0.207 0.082-0.406 0.229-0.552s0.345-0.229 0.552-0.229h7.813c0.207 0 0.406 0.082 0.552 0.229s0.229 0.345 0.229 0.552v7.813c0 0.207-0.082 0.406-0.229 0.552s-0.345 0.229-0.552 0.229h-7.813c-0.207 0-0.406-0.082-0.552-0.229s-0.229-0.345-0.229-0.552v-7.813z">
            </path>
            <path
                d="M1.563 3.125c0-0.829 0.329-1.624 0.915-2.21s1.381-0.915 2.21-0.915h9.375c0.829 0 1.624 0.329 2.21 0.915s0.915 1.381 0.915 2.21v12.5c0.829 0 1.624 0.329 2.21 0.915s0.915 1.381 0.915 2.21v0.781c0 0.207 0.082 0.406 0.229 0.552s0.345 0.229 0.552 0.229 0.406-0.082 0.552-0.229c0.147-0.147 0.229-0.345 0.229-0.552v-7.031h-0.781c-0.207 0-0.406-0.082-0.552-0.229s-0.229-0.345-0.229-0.552v-4.883c0-0.207 0.082-0.406 0.229-0.552s0.345-0.229 0.552-0.229h2.336c-0.017-0.744-0.083-1.397-0.314-1.909-0.124-0.298-0.34-0.549-0.616-0.716-0.287-0.172-0.725-0.305-1.406-0.305-0.207 0-0.406-0.082-0.552-0.229s-0.229-0.345-0.229-0.552 0.082-0.406 0.229-0.552c0.147-0.147 0.345-0.229 0.552-0.229 0.881-0.002 1.617 0.173 2.206 0.525 0.598 0.356 0.991 0.861 1.241 1.417 0.461 1.023 0.459 2.289 0.459 3.252v4.961c0 0.103-0.020 0.204-0.059 0.299s-0.097 0.181-0.169 0.254c-0.073 0.073-0.159 0.13-0.254 0.17s-0.197 0.060-0.299 0.060h-0.781v7.031c0 0.622-0.247 1.218-0.686 1.657s-1.036 0.686-1.657 0.686-1.218-0.247-1.657-0.686c-0.44-0.44-0.686-1.036-0.686-1.657v-0.781c0-0.414-0.165-0.812-0.458-1.105s-0.691-0.458-1.105-0.458v6.25h0.781c0.207 0 0.406 0.082 0.552 0.229s0.229 0.345 0.229 0.552-0.082 0.406-0.229 0.552c-0.147 0.147-0.345 0.229-0.552 0.229h-17.188c-0.207 0-0.406-0.082-0.552-0.229s-0.229-0.345-0.229-0.552 0.082-0.406 0.229-0.552c0.147-0.147 0.345-0.229 0.552-0.229h0.781v-20.313zM15.625 3.125c0-0.414-0.165-0.812-0.458-1.105s-0.691-0.458-1.105-0.458h-9.375c-0.414 0-0.812 0.165-1.105 0.458s-0.458 0.69-0.458 1.105v20.313h12.5v-20.313z">
            </path>
        </symbol>
        <symbol id="starDefault" viewBox="0 0 25 25">
            <path
                d="M11.809 1.31a.781.781 0 0 1 1.382 0l2.95 5.592a.78.78 0 0 0 .558.405l6.23 1.078a.781.781 0 0 1 .427 1.314l-4.407 4.534a.78.78 0 0 0-.213.656l.9 6.258a.78.78 0 0 1-1.118.812l-5.674-2.79a.78.78 0 0 0-.689 0l-5.674 2.79a.781.781 0 0 1-1.118-.812l.9-6.258a.783.783 0 0 0-.213-.656L1.643 9.699a.781.781 0 0 1 .427-1.314L8.3 7.307a.78.78 0 0 0 .558-.405l2.95-5.592z" />
        </symbol>
        <symbol id="favoritepressed" viewBox="0 0 25 25">
            <path
                d="M12.5 10.265 11.103 7.47c-.347-.692-.948-1.688-1.8-2.492-.838-.792-1.841-1.331-3.053-1.331-2.619 0-4.688 2.072-4.688 4.563 0 1.892.866 3.228 2.919 5.266a91.808 91.808 0 0 0 1.791 1.708c1.731 1.625 3.884 3.647 6.228 6.35 2.344-2.703 4.497-4.725 6.228-6.35a89.163 89.163 0 0 0 1.791-1.708c2.053-2.037 2.919-3.373 2.919-5.266 0-2.491-2.069-4.563-4.688-4.563-1.214 0-2.216.539-3.053 1.331-.852.805-1.453 1.8-1.8 2.492L12.5 10.265zm.612 12.956a.798.798 0 0 1-.951.21.798.798 0 0 1-.275-.21c-2.502-2.972-4.766-5.097-6.63-6.845-3.227-3.03-5.258-4.934-5.258-8.167 0-3.383 2.797-6.125 6.25-6.125 2.5 0 4.248 1.641 5.319 3.137.406.57.716 1.119.931 1.55.271-.54.582-1.058.931-1.55 1.07-1.498 2.819-3.137 5.319-3.137 3.453 0 6.25 2.742 6.25 6.125 0 3.233-2.031 5.138-5.258 8.167-1.864 1.75-4.128 3.877-6.63 6.845z" />
        </symbol>
        <symbol id="Logo" viewBox="0 0 213 25">
            <path fill="#475467" style="fill: var(--color1, #475467)"
                d="M211.552 11.23h-5.637c-0.030-0.348-0.152-0.647-0.367-0.899-0.214-0.252-0.492-0.444-0.831-0.577-0.334-0.141-0.703-0.211-1.111-0.211-0.525 0-0.977 0.096-1.353 0.289-0.378 0.192-0.563 0.466-0.555 0.821-0.008 0.252 0.1 0.485 0.322 0.699 0.228 0.215 0.669 0.381 1.32 0.499l3.463 0.621c1.745 0.318 3.044 0.854 3.895 1.609 0.858 0.747 1.291 1.75 1.298 3.007-0.008 1.213-0.37 2.268-1.088 3.163-0.711 0.888-1.684 1.576-2.919 2.064-1.228 0.481-2.631 0.721-4.206 0.721-2.605 0-4.642-0.533-6.114-1.598-1.466-1.065-2.283-2.471-2.453-4.217h6.081c0.081 0.54 0.348 0.958 0.798 1.254 0.459 0.289 1.036 0.433 1.731 0.433 0.563 0 1.025-0.096 1.387-0.288 0.37-0.192 0.559-0.466 0.566-0.821-0.006-0.325-0.17-0.585-0.488-0.777-0.311-0.192-0.8-0.348-1.466-0.466l-3.017-0.533c-1.739-0.303-3.041-0.88-3.906-1.731s-1.295-1.946-1.287-3.285c-0.008-1.184 0.303-2.186 0.931-3.007 0.636-0.829 1.542-1.457 2.719-1.887 1.184-0.436 2.586-0.655 4.206-0.655 2.464 0 4.406 0.51 5.827 1.531 1.428 1.021 2.178 2.434 2.253 4.239z">
            </path>
            <path fill="#475467" style="fill: var(--color1, #475467)"
                d="M181.898 18.688l0.044-7.28h0.8l4.128-5.726h6.88l-6.925 8.922h-1.731l-3.195 4.084zM176.394 22.727v-22.727h6.127v22.727h-6.127zM186.914 22.727l-3.906-6.747 3.995-4.35 6.925 11.097h-7.014z">
            </path>
            <path fill="#475467" style="fill: var(--color1, #475467)"
                d="M165.030 23.038c-1.85 0-3.433-0.366-4.75-1.099-1.317-0.74-2.327-1.768-3.030-3.085-0.703-1.324-1.054-2.859-1.054-4.605s0.351-3.277 1.054-4.594c0.703-1.324 1.713-2.353 3.030-3.085 1.317-0.74 2.9-1.11 4.75-1.11 1.672 0 3.119 0.303 4.339 0.91 1.228 0.599 2.178 1.45 2.852 2.552 0.673 1.095 1.014 2.382 1.022 3.862h-5.683c-0.081-0.895-0.341-1.576-0.777-2.042-0.43-0.473-0.984-0.71-1.664-0.71-0.533 0-1 0.155-1.398 0.466-0.4 0.303-0.711 0.766-0.933 1.387-0.222 0.614-0.333 1.387-0.333 2.319s0.111 1.709 0.333 2.33c0.222 0.614 0.533 1.077 0.933 1.387 0.398 0.303 0.866 0.455 1.398 0.455 0.45 0 0.85-0.104 1.198-0.311 0.347-0.215 0.628-0.525 0.842-0.932 0.223-0.414 0.356-0.918 0.4-1.509h5.683c-0.023 1.502-0.367 2.811-1.033 3.928-0.666 1.11-1.609 1.968-2.83 2.575-1.214 0.607-2.664 0.91-4.35 0.91z">
            </path>
            <path fill="#475467" style="fill: var(--color1, #475467)"
                d="M146.951 15.27v-9.588h6.126v17.045h-5.815v-3.24h-0.178c-0.37 1.088-1.017 1.938-1.942 2.552-0.925 0.607-2.023 0.91-3.296 0.91-1.191 0-2.234-0.274-3.13-0.821-0.888-0.548-1.58-1.302-2.075-2.264-0.488-0.962-0.736-2.064-0.743-3.307v-10.875h6.126v9.588c0.007 0.843 0.222 1.506 0.644 1.986 0.429 0.481 1.028 0.721 1.798 0.721 0.51 0 0.951-0.107 1.321-0.322 0.377-0.222 0.666-0.533 0.866-0.932 0.207-0.407 0.307-0.891 0.3-1.454z">
            </path>
            <path fill="#475467" style="fill: var(--color1, #475467)"
                d="M121.723 22.727v-17.045h5.948v3.24h0.177c0.311-1.199 0.803-2.075 1.476-2.63 0.681-0.555 1.476-0.832 2.386-0.832 0.266 0 0.529 0.022 0.788 0.067 0.266 0.037 0.522 0.092 0.766 0.166v5.227c-0.303-0.104-0.677-0.181-1.121-0.233s-0.825-0.078-1.143-0.078c-0.599 0-1.139 0.137-1.62 0.411-0.474 0.266-0.847 0.644-1.121 1.132-0.274 0.481-0.411 1.047-0.411 1.698v8.878h-6.126z">
            </path>
            <path fill="#475467" style="fill: var(--color1, #475467)"
                d="M100.704 4.972v-4.972h19.753v4.972h-6.836v17.756h-6.081v-17.756h-6.836z"></path>
            <path fill="#101828" style="fill: var(--color2, #101828)" d="M97.668 0v22.727h-6.126v-22.727h6.126z"></path>
            <path fill="#101828" style="fill: var(--color2, #101828)"
                d="M80.073 23.038c-1.82 0-3.388-0.348-4.705-1.043-1.31-0.703-2.319-1.709-3.030-3.018-0.703-1.317-1.054-2.893-1.054-4.727 0-1.761 0.355-3.3 1.065-4.616s1.713-2.342 3.007-3.074 2.823-1.099 4.583-1.099c1.287 0 2.452 0.2 3.496 0.599s1.935 0.98 2.674 1.742c0.74 0.755 1.31 1.672 1.709 2.752s0.599 2.297 0.599 3.651v1.42h-15.225v-3.374h9.588c-0.007-0.488-0.133-0.917-0.377-1.287-0.237-0.377-0.559-0.67-0.965-0.877-0.4-0.215-0.855-0.322-1.365-0.322-0.496 0-0.951 0.107-1.365 0.322-0.414 0.207-0.747 0.496-0.999 0.866-0.244 0.37-0.374 0.803-0.388 1.298v3.64c0 0.548 0.115 1.036 0.344 1.465s0.559 0.766 0.988 1.010c0.429 0.244 0.947 0.366 1.554 0.366 0.422 0 0.806-0.059 1.154-0.178 0.355-0.118 0.658-0.288 0.91-0.51 0.252-0.229 0.437-0.503 0.555-0.821h5.593c-0.192 1.184-0.647 2.212-1.365 3.085-0.718 0.866-1.668 1.539-2.852 2.020-1.176 0.473-2.552 0.71-4.128 0.71z">
            </path>
            <path fill="#101828" style="fill: var(--color2, #101828)"
                d="M70.057 5.682l-5.726 17.045h-7.102l-5.726-17.045h6.436l2.752 11.275h0.178l2.752-11.275h6.437z">
            </path>
            <path fill="#101828" style="fill: var(--color2, #101828)"
                d="M39.15 22.994c-1.087 0-2.049-0.178-2.885-0.533-0.829-0.363-1.48-0.91-1.953-1.642s-0.71-1.665-0.71-2.797c0-0.932 0.159-1.727 0.477-2.386 0.318-0.666 0.762-1.21 1.332-1.631s1.232-0.744 1.986-0.965c0.762-0.222 1.583-0.366 2.464-0.433 0.954-0.074 1.72-0.163 2.297-0.266 0.585-0.111 1.006-0.263 1.265-0.455 0.259-0.2 0.388-0.462 0.388-0.788v-0.044c0-0.444-0.17-0.784-0.51-1.021s-0.777-0.355-1.31-0.355c-0.585 0-1.062 0.129-1.432 0.388-0.362 0.252-0.581 0.64-0.655 1.165h-5.638c0.074-1.036 0.403-1.99 0.988-2.863 0.592-0.88 1.454-1.583 2.586-2.108 1.132-0.533 2.545-0.799 4.239-0.799 1.221 0 2.316 0.144 3.285 0.433 0.969 0.281 1.794 0.677 2.475 1.187 0.681 0.503 1.198 1.095 1.554 1.776 0.363 0.673 0.544 1.406 0.544 2.197v11.674h-5.726v-2.397h-0.133c-0.34 0.636-0.755 1.15-1.243 1.543-0.481 0.392-1.032 0.677-1.654 0.855-0.614 0.177-1.291 0.266-2.031 0.266zM41.148 19.132c0.466 0 0.903-0.096 1.31-0.289 0.414-0.192 0.751-0.47 1.010-0.832s0.388-0.803 0.388-1.32v-1.421c-0.163 0.067-0.337 0.129-0.522 0.189-0.178 0.059-0.37 0.115-0.577 0.166-0.2 0.052-0.414 0.1-0.644 0.144-0.222 0.044-0.455 0.085-0.699 0.122-0.473 0.074-0.862 0.196-1.165 0.366-0.296 0.163-0.518 0.366-0.666 0.61-0.141 0.237-0.211 0.503-0.211 0.799 0 0.473 0.166 0.836 0.499 1.087s0.758 0.377 1.276 0.377z">
            </path>
            <path fill="#101828" style="fill: var(--color2, #101828)"
                d="M21.019 22.727v-17.045h5.948v3.24h0.178c0.311-1.199 0.803-2.075 1.476-2.63 0.681-0.555 1.476-0.832 2.386-0.832 0.266 0 0.529 0.022 0.788 0.067 0.266 0.037 0.522 0.092 0.766 0.166v5.227c-0.303-0.104-0.677-0.181-1.121-0.233s-0.825-0.078-1.143-0.078c-0.599 0-1.139 0.137-1.62 0.411-0.474 0.266-0.847 0.644-1.121 1.132-0.274 0.481-0.41 1.047-0.41 1.698v8.878h-6.126z">
            </path>
            <path fill="#101828" style="fill: var(--color2, #101828)"
                d="M0 4.972v-4.972h19.753v4.972h-6.836v17.756h-6.081v-17.756h-6.836z"></path>
        </symbol>
        <symbol id="Map" viewBox="0 0 25 25">
            <path
                d="M24.714 0.176c0.090 0.073 0.162 0.166 0.211 0.27s0.075 0.219 0.075 0.334v21.875c-0 0.18-0.063 0.355-0.177 0.495s-0.274 0.235-0.451 0.271l-7.813 1.563c-0.101 0.020-0.205 0.020-0.306 0l-7.659-1.531-7.659 1.531c-0.113 0.023-0.23 0.020-0.342-0.008s-0.217-0.080-0.306-0.154c-0.089-0.073-0.161-0.165-0.211-0.27s-0.075-0.219-0.075-0.334v-21.875c0-0.181 0.063-0.355 0.177-0.495s0.274-0.235 0.451-0.271l7.813-1.563c0.101-0.020 0.205-0.020 0.306 0l7.659 1.531 7.659-1.531c0.113-0.023 0.23-0.020 0.342 0.008s0.217 0.080 0.306 0.153zM15.625 2.984l-6.25-1.25v20.281l6.25 1.25v-20.281zM17.188 23.265l6.25-1.25v-20.281l-6.25 1.25v20.281zM7.813 22.015v-20.281l-6.25 1.25v20.281l6.25-1.25z">
            </path>
        </symbol>
    </defs>
</svg>