<svg xmlns="http://www.w3.org/2000/svg" aria-hidden="true" style="position:absolute;width:0;height:0;overflow:hidden">
    <defs>
        <symbol id="truck" viewBox="0 0 25 25">
            <path
                d="m25 14.063-3.125-6.25h-4.688V4.688c0-.859-.703-1.563-1.563-1.563H1.561c-.859 0-1.563.703-1.563 1.563v12.5l1.563 1.563h1.982a3.125 3.125 0 1 0 5.412 0h8.651a3.125 3.125 0 1 0 5.412 0H25v-4.688zm-7.812 0V9.375h3.239l2.344 4.688h-5.583z" />
        </symbol>
        <symbol id="bi_grid" viewBox="0 0 25 25">
            <path
                d="M1.563 3.906a2.343 2.343 0 0 1 2.343-2.343h4.688a2.343 2.343 0 0 1 2.343 2.343v4.688a2.343 2.343 0 0 1-2.343 2.343H3.906a2.343 2.343 0 0 1-2.343-2.343V3.906zm2.343-.781a.778.778 0 0 0-.781.781v4.688a.778.778 0 0 0 .781.781h4.688a.778.778 0 0 0 .781-.781V3.906a.778.778 0 0 0-.781-.781H3.906zm10.157.781a2.343 2.343 0 0 1 2.343-2.343h4.688a2.343 2.343 0 0 1 2.343 2.343v4.688a2.343 2.343 0 0 1-2.343 2.343h-4.688a2.343 2.343 0 0 1-2.343-2.343V3.906zm2.343-.781a.778.778 0 0 0-.781.781v4.688a.778.778 0 0 0 .781.781h4.688a.778.778 0 0 0 .781-.781V3.906a.778.778 0 0 0-.781-.781h-4.688zM1.563 16.406a2.343 2.343 0 0 1 2.343-2.343h4.688a2.343 2.343 0 0 1 2.343 2.343v4.688a2.343 2.343 0 0 1-2.343 2.343H3.906a2.343 2.343 0 0 1-2.343-2.343v-4.688zm2.343-.781a.778.778 0 0 0-.781.781v4.688a.778.778 0 0 0 .781.781h4.688a.778.778 0 0 0 .781-.781v-4.688a.778.778 0 0 0-.781-.781H3.906zm10.157.781a2.343 2.343 0 0 1 2.343-2.343h4.688a2.343 2.343 0 0 1 2.343 2.343v4.688a2.343 2.343 0 0 1-2.343 2.343h-4.688a2.343 2.343 0 0 1-2.343-2.343v-4.688zm2.343-.781a.778.778 0 0 0-.781.781v4.688a.778.778 0 0 0 .781.781h4.688a.778.778 0 0 0 .781-.781v-4.688a.778.778 0 0 0-.781-.781h-4.688z" />
        </symbol>
        <symbol id="bi_grid-1x2" viewBox="0 0 25 25">
            <path
                d="M9.375 1.563H1.562v21.875h7.813V1.563zm14.063 0h-7.813v7.813h7.813V1.563zm0 14.062v7.813h-7.813v-7.813h7.813zM0 1.563A1.564 1.564 0 0 1 1.563 0h7.813a1.564 1.564 0 0 1 1.563 1.563v21.875a1.564 1.564 0 0 1-1.563 1.563H1.563A1.564 1.564 0 0 1 0 23.438V1.563zm14.063 0A1.564 1.564 0 0 1 15.626 0h7.813a1.564 1.564 0 0 1 1.563 1.563v7.813a1.564 1.564 0 0 1-1.563 1.563h-7.813a1.564 1.564 0 0 1-1.563-1.563V1.563zm1.562 12.5a1.564 1.564 0 0 0-1.563 1.563v7.813a1.564 1.564 0 0 0 1.563 1.563h7.813a1.564 1.564 0 0 0 1.563-1.563v-7.813a1.564 1.564 0 0 0-1.563-1.563h-7.813z" />
        </symbol>
        <symbol id="bi_grid-3x3-gap" viewBox="0 0 25 25">
            <path
                d="M6.25 3.125V6.25H3.125V3.125H6.25zm1.563 18.75V18.75a1.564 1.564 0 0 0-1.563-1.563H3.125a1.564 1.564 0 0 0-1.563 1.563v3.125a1.564 1.564 0 0 0 1.563 1.563H6.25a1.564 1.564 0 0 0 1.563-1.563zm0-7.812v-3.125A1.564 1.564 0 0 0 6.25 9.375H3.125a1.564 1.564 0 0 0-1.563 1.563v3.125a1.564 1.564 0 0 0 1.563 1.563H6.25a1.564 1.564 0 0 0 1.563-1.563zm0-7.813V3.125A1.564 1.564 0 0 0 6.25 1.562H3.125a1.564 1.564 0 0 0-1.563 1.563V6.25a1.564 1.564 0 0 0 1.563 1.563H6.25A1.564 1.564 0 0 0 7.813 6.25zm7.812 15.625V18.75a1.564 1.564 0 0 0-1.563-1.563h-3.125a1.564 1.564 0 0 0-1.563 1.563v3.125a1.564 1.564 0 0 0 1.563 1.563h3.125a1.564 1.564 0 0 0 1.563-1.563zm0-7.812v-3.125a1.564 1.564 0 0 0-1.563-1.563h-3.125a1.564 1.564 0 0 0-1.563 1.563v3.125a1.564 1.564 0 0 0 1.563 1.563h3.125a1.564 1.564 0 0 0 1.563-1.563zm0-7.813V3.125a1.564 1.564 0 0 0-1.563-1.563h-3.125a1.564 1.564 0 0 0-1.563 1.563V6.25a1.564 1.564 0 0 0 1.563 1.563h3.125a1.564 1.564 0 0 0 1.563-1.563zm-1.562-3.125V6.25h-3.125V3.125h3.125zm7.812 0V6.25H18.75V3.125h3.125zM6.25 10.938v3.125H3.125v-3.125H6.25zm7.813 0v3.125h-3.125v-3.125h3.125zm7.812 0H18.75v3.125h3.125v-3.125zM6.25 18.75v3.125H3.125V18.75H6.25zm7.813 0v3.125h-3.125V18.75h3.125zm7.812 0v3.125H18.75V18.75h3.125zM18.75 1.563a1.564 1.564 0 0 0-1.563 1.563v3.125a1.564 1.564 0 0 0 1.563 1.563h3.125a1.564 1.564 0 0 0 1.563-1.563V3.126a1.564 1.564 0 0 0-1.563-1.563H18.75zm-1.562 9.375a1.564 1.564 0 0 1 1.563-1.563h3.125a1.564 1.564 0 0 1 1.563 1.563v3.125a1.564 1.564 0 0 1-1.563 1.563h-3.125a1.564 1.564 0 0 1-1.563-1.563v-3.125zm1.562 6.25a1.564 1.564 0 0 0-1.563 1.563v3.125a1.564 1.564 0 0 0 1.563 1.563h3.125a1.564 1.564 0 0 0 1.563-1.563v-3.125a1.564 1.564 0 0 0-1.563-1.563H18.75z" />
        </symbol>
        <symbol id="cup-hot" viewBox="0 0 25 25">
            <path
                d="M.781 9.375a.778.778 0 0 0-.609.292.777.777 0 0 0-.154.657L2.599 21.94A3.903 3.903 0 0 0 6.412 25h9.05a3.911 3.911 0 0 0 3.813-3.06l.205-.922a4.686 4.686 0 0 0 4.858-7.058 4.685 4.685 0 0 0-2.827-2.089l.345-1.547a.777.777 0 0 0-.424-.872.789.789 0 0 0-.338-.077H.781zm19.532 10.156c-.165 0-.33-.013-.494-.039l1.355-6.091a3.124 3.124 0 0 1 2.227 3.438 3.127 3.127 0 0 1-3.088 2.692zM4.125 21.602l-2.37-10.664h18.366l-2.37 10.664a2.345 2.345 0 0 1-2.287 1.836h-9.05a2.34 2.34 0 0 1-2.287-1.836zM6.875 1.25l-.005.006-.022.03c-.114.156-.22.318-.319.484a3.13 3.13 0 0 0-.22.417c-.041.094-.053.144-.058.161v.006a.948.948 0 0 0 .142.388c.117.208.278.425.481.695l.016.019c.184.247.406.542.578.848.175.313.344.711.344 1.164 0 .294-.102.575-.186.772-.09.209-.196.412-.316.606a7.9 7.9 0 0 1-.395.597l-.028.039-.008.013-.003.003a.778.778 0 0 1-1.094.157.778.778 0 0 1-.157-1.094l.005-.006.022-.03c.114-.156.22-.318.319-.484a3.13 3.13 0 0 0 .22-.417c.041-.094.053-.144.058-.161a.944.944 0 0 0-.141-.394 6.156 6.156 0 0 0-.483-.695l-.016-.019a7.87 7.87 0 0 1-.578-.848 2.394 2.394 0 0 1-.344-1.164c0-.294.102-.575.186-.772.092-.216.209-.428.316-.606.124-.204.256-.403.395-.597l.039-.055A.778.778 0 0 1 6.717.156a.778.778 0 0 1 .157 1.094zm4.688 0-.005.006-.022.03c-.114.156-.22.318-.319.484a3.13 3.13 0 0 0-.22.417c-.041.094-.053.144-.058.161v.006a.948.948 0 0 0 .142.388c.117.208.278.425.481.695l.016.019c.184.247.406.542.578.848.175.313.344.711.344 1.164 0 .294-.102.575-.186.772-.09.209-.196.412-.316.606a7.9 7.9 0 0 1-.395.597l-.028.039-.008.013-.003.003a.778.778 0 0 1-1.094.157.778.778 0 0 1-.157-1.094l.005-.006.022-.03c.114-.156.22-.318.319-.484a3.13 3.13 0 0 0 .22-.417c.041-.094.053-.144.058-.161a.944.944 0 0 0-.141-.394 6.156 6.156 0 0 0-.483-.695l-.016-.019a7.87 7.87 0 0 1-.578-.848 2.394 2.394 0 0 1-.344-1.164c0-.294.102-.575.186-.772.092-.216.209-.428.316-.606.124-.204.256-.403.395-.597l.039-.055a.778.778 0 0 1 1.094-.157.778.778 0 0 1 .157 1.094zm4.687 0-.005.006-.022.03c-.114.156-.22.318-.319.484a3.13 3.13 0 0 0-.22.417c-.041.094-.053.144-.058.161v.006a.948.948 0 0 0 .142.388c.117.208.278.425.481.695l.016.019c.184.247.406.542.578.848.175.313.344.711.344 1.164 0 .294-.102.575-.186.772-.09.209-.196.412-.316.606a7.595 7.595 0 0 1-.394.597l-.03.039-.008.013-.003.003a.778.778 0 0 1-1.094.157.778.778 0 0 1-.157-1.094l.005-.006.022-.03c.114-.156.22-.318.319-.484a3.13 3.13 0 0 0 .22-.417c.041-.094.053-.144.058-.161a.944.944 0 0 0-.141-.394 6.156 6.156 0 0 0-.483-.695l-.016-.019a7.87 7.87 0 0 1-.578-.848 2.394 2.394 0 0 1-.344-1.164c0-.294.102-.575.186-.772.092-.216.209-.428.316-.606.124-.204.256-.403.395-.597l.039-.055a.778.778 0 0 1 1.094-.157.778.778 0 0 1 .157 1.094z" />
        </symbol>
        <symbol id="diagram" viewBox="0 0 25 25">
            <path
                d="M9.375 5.469a2.343 2.343 0 0 1 2.343-2.343h1.563a2.343 2.343 0 0 1 2.343 2.343v1.563a2.343 2.343 0 0 1-2.343 2.343v1.563h8.594a.778.778 0 0 1 .781.781v1.563a.778.778 0 0 1-.781.781.778.778 0 0 1-.781-.781v-.781h-7.813v.781a.778.778 0 0 1-.781.781.778.778 0 0 1-.781-.781v-.781H3.906v.781a.778.778 0 0 1-.781.781.778.778 0 0 1-.781-.781v-1.563a.778.778 0 0 1 .781-.781h8.594V9.375a2.343 2.343 0 0 1-2.343-2.343V5.469zm3.906 2.344a.778.778 0 0 0 .781-.781V5.469a.778.778 0 0 0-.781-.781h-1.563a.778.778 0 0 0-.781.781v1.563a.778.778 0 0 0 .781.781h1.563zM0 17.969a2.343 2.343 0 0 1 2.343-2.343h1.563a2.343 2.343 0 0 1 2.343 2.343v1.563a2.343 2.343 0 0 1-2.343 2.343H2.343A2.343 2.343 0 0 1 0 19.532v-1.563zm2.344-.781a.778.778 0 0 0-.781.781v1.563a.778.778 0 0 0 .781.781h1.563a.778.778 0 0 0 .781-.781v-1.563a.778.778 0 0 0-.781-.781H2.344zm7.031.781a2.343 2.343 0 0 1 2.343-2.343h1.563a2.343 2.343 0 0 1 2.343 2.343v1.563a2.343 2.343 0 0 1-2.343 2.343h-1.563a2.343 2.343 0 0 1-2.343-2.343v-1.563zm2.344-.781a.778.778 0 0 0-.781.781v1.563a.778.778 0 0 0 .781.781h1.563a.778.778 0 0 0 .781-.781v-1.563a.778.778 0 0 0-.781-.781h-1.563zm7.031.781a2.343 2.343 0 0 1 2.343-2.343h1.563a2.343 2.343 0 0 1 2.343 2.343v1.563a2.343 2.343 0 0 1-2.343 2.343h-1.563a2.343 2.343 0 0 1-2.343-2.343v-1.563zm2.344-.781a.778.778 0 0 0-.781.781v1.563a.778.778 0 0 0 .781.781h1.563a.778.778 0 0 0 .781-.781v-1.563a.778.778 0 0 0-.781-.781h-1.563z" />
        </symbol>
        <symbol id="hugeicons_gas-stove" viewBox="0 0 25 25">
            <path stroke-linecap="round" stroke-linejoin="round" stroke-width="1.875"
                d="M6.25 19.792h4.167m8.333.009v-.009M2.083 6.25c0-3.448.719-4.167 4.167-4.167h12.5c3.448 0 4.167.719 4.167 4.167v12.5c0 3.448-.719 4.167-4.167 4.167H6.25c-3.448 0-4.167-.719-4.167-4.167V6.25z" />
            <path stroke-linecap="round" stroke-linejoin="round" stroke-width="1.875"
                d="M12.5 14.583a4.167 4.167 0 1 0 0-8.334 4.167 4.167 0 0 0 0 8.334zM16.146 10.417h1.563M12.5 14.063v1.563m-3.646-5.209H7.292M12.5 6.771V5.208" />
        </symbol>
        <symbol id="ion_water-outline" viewBox="0 0 25 25">
            <path stroke-miterlimit="10" stroke-width="1.563"
                d="M19.531 15.625c0 4.315-2.716 7.031-7.031 7.031s-7.031-2.716-7.031-7.031c0-4.63 5.041-10.881 6.586-12.689a.582.582 0 0 1 .69-.151.595.595 0 0 1 .2.151c1.545 1.808 6.586 8.059 6.586 12.689z" />
            <path stroke-linecap="round" stroke-linejoin="round" stroke-width="1.563"
                d="M16.797 16.016a3.513 3.513 0 0 1-3.516 3.516" />
        </symbol>
        <symbol id="lucide_microwave" viewBox="0 0 25 25">
            <path stroke-linecap="round" stroke-linejoin="round" stroke-width="1.563"
                d="M20.833 4.167H4.166A2.083 2.083 0 0 0 2.083 6.25v11.458c0 1.151.933 2.083 2.083 2.083h16.667a2.083 2.083 0 0 0 2.083-2.083V6.25a2.083 2.083 0 0 0-2.083-2.083z" />
            <path stroke-linecap="round" stroke-linejoin="round" stroke-width="1.563"
                d="M13.542 8.333h-6.25c-.575 0-1.042.466-1.042 1.042v5.208c0 .575.466 1.042 1.042 1.042h6.25c.575 0 1.042-.466 1.042-1.042V9.375c0-.575-.466-1.042-1.042-1.042zM18.75 8.333v7.292m-12.5 4.167v2.083m12.5-2.083v2.083" />
        </symbol>
        <symbol id="ph_shower" viewBox="0 0 25 25">
            <path
                d="M6.25 23.047a1.17 1.17 0 0 1-.724 1.083 1.171 1.171 0 1 1-.448-2.255 1.172 1.172 0 0 1 1.172 1.172zm1.953-4.297a1.17 1.17 0 0 0-1.083.724 1.171 1.171 0 1 0 2.255.448 1.172 1.172 0 0 0-1.172-1.172zm-6.25 0a1.17 1.17 0 0 0-1.083.724 1.171 1.171 0 1 0 1.082-.724zm3.125-3.125a1.17 1.17 0 0 0-1.083.724 1.171 1.171 0 1 0 2.255.448 1.172 1.172 0 0 0-1.172-1.172zM25 3.906a.778.778 0 0 1-.781.781h-2.802l-2.72 2.721-2.115 12.382a1.565 1.565 0 0 1-1.909 1.259 1.559 1.559 0 0 1-.736-.414l-9.57-9.57a1.567 1.567 0 0 1-.383-1.582 1.565 1.565 0 0 1 1.232-1.064l12.377-2.116 2.949-2.949a.774.774 0 0 1 .553-.228h3.125a.778.778 0 0 1 .781.781zm-7.987 4.081L5.469 9.961l9.57 9.57 1.974-11.544z" />
        </symbol>
        <symbol id="solar_fridge-outline" viewBox="0 0 25 25">
            <path
                d="M18.49 7.292a.778.778 0 0 0-.781-.781.778.778 0 0 0-.781.781v2.083a.778.778 0 0 0 .781.781.778.778 0 0 0 .781-.781V7.292zm0 7.291a.778.778 0 0 0-.781-.781.778.778 0 0 0-.781.781v2.083a.778.778 0 0 0 .781.781.778.778 0 0 0 .781-.781v-2.083z" />
            <path
                d="M12.558 1.302h-.117c-1.915 0-3.431 0-4.618.159-1.221.165-2.209.51-2.99 1.29-.779.78-1.125 1.769-1.29 2.99-.159 1.188-.159 2.703-.159 4.618v3.242c0 1.915 0 3.431.159 4.618.165 1.221.51 2.209 1.29 2.99.479.478 1.035.793 1.676 1.003v.706c0 .431.35.781.781.781h1.042a.778.778 0 0 0 .781-.781v-.308c.945.048 2.047.048 3.327.048h.117c1.281 0 2.382 0 3.327-.048v.308c0 .431.35.781.781.781h1.042a.778.778 0 0 0 .781-.781v-.706c.641-.21 1.198-.525 1.676-1.003.779-.78 1.125-1.769 1.29-2.99.159-1.187.159-2.703.159-4.618V10.36c0-1.915 0-3.431-.159-4.618-.165-1.221-.51-2.209-1.29-2.99-.78-.779-1.769-1.125-2.99-1.29-1.187-.159-2.703-.159-4.618-.159zM5.94 3.856c.441-.441 1.045-.705 2.093-.846 1.071-.144 2.481-.146 4.468-.146s3.398.002 4.469.146c1.047.141 1.651.405 2.092.846s.705 1.045.846 2.093c.144 1.071.146 2.481.146 4.468v.781H4.95v-.781c0-1.986.002-3.397.146-4.469.141-1.047.405-1.651.846-2.092zm-.992 8.904h15.104v.781c0 1.986-.002 3.398-.146 4.469-.141 1.047-.405 1.651-.846 2.092s-1.045.705-2.093.846c-1.071.144-2.481.146-4.468.146s-3.397-.002-4.469-.146c-1.047-.141-1.651-.405-2.092-.846s-.705-1.045-.846-2.093c-.144-1.07-.146-2.481-.146-4.468v-.781z" />
        </symbol>
        <symbol id="tv" viewBox="0 0 25 25">
            <path
                d="M0 6.25s0-3.125 3.125-3.125h18.75S25 3.125 25 6.25v9.375s0 3.125-3.125 3.125h-6.25c0 1.042.13 1.823.391 2.344h1.172a.778.778 0 0 1 .781.781.778.778 0 0 1-.781.781H7.813a.778.778 0 0 1-.781-.781.778.778 0 0 1 .781-.781h1.172c.26-.521.391-1.302.391-2.344h-6.25s-3.125 0-3.125-3.125V6.25zm2.184-1.336c-.172.12-.308.282-.397.472a2.341 2.341 0 0 0-.225.88v9.359c0 .508.122.784.227.941.109.162.267.295.472.397.264.126.549.202.841.223l.039.002h18.734c.508 0 .784-.122.941-.227.172-.12.308-.282.397-.472.126-.264.202-.549.223-.841l.002-.039V6.25c0-.508-.122-.784-.227-.941a1.188 1.188 0 0 0-.472-.397 2.341 2.341 0 0 0-.88-.225H3.125c-.508 0-.784.122-.941.227z" />
        </symbol>
        <symbol id="wind" viewBox="0 0 25 25">
            <path
                d="M19.531 3.125a3.907 3.907 0 0 0-3.906 3.906.778.778 0 0 1-.781.781.778.778 0 0 1-.781-.781 5.466 5.466 0 0 1 3.376-5.052 5.469 5.469 0 1 1 2.094 10.522H.783a.778.778 0 0 1-.781-.781.778.778 0 0 1 .781-.781h18.75a3.907 3.907 0 0 0 0-7.812zM8.594 4.688a1.564 1.564 0 0 0-1.563 1.563.778.778 0 0 1-.781.781.778.778 0 0 1-.781-.781 3.12 3.12 0 0 1 1.929-2.887 3.127 3.127 0 0 1 4.261 2.277 3.12 3.12 0 0 1-1.329 3.208 3.128 3.128 0 0 1-1.736.527H.781A.778.778 0 0 1 0 8.595a.778.778 0 0 1 .781-.781h7.813a1.564 1.564 0 0 0 0-3.126zM0 14.844a.778.778 0 0 1 .781-.781h15.691a4.688 4.688 0 1 1-4.688 4.688.778.778 0 0 1 .781-.781.778.778 0 0 1 .781.781 3.12 3.12 0 0 0 1.929 2.887 3.127 3.127 0 0 0 4.261-2.277 3.12 3.12 0 0 0-1.329-3.208 3.128 3.128 0 0 0-1.736-.527H.78a.778.778 0 0 1-.781-.781z" />
        </symbol>
        <symbol id="starDefault" viewBox="0 0 25 25">
            <path
                d="M11.809 1.31a.781.781 0 0 1 1.382 0l2.95 5.592a.78.78 0 0 0 .558.405l6.23 1.078a.781.781 0 0 1 .427 1.314l-4.407 4.534a.78.78 0 0 0-.213.656l.9 6.258a.78.78 0 0 1-1.118.812l-5.674-2.79a.78.78 0 0 0-.689 0l-5.674 2.79a.781.781 0 0 1-1.118-.812l.9-6.258a.783.783 0 0 0-.213-.656L1.643 9.699a.781.781 0 0 1 .427-1.314L8.3 7.307a.78.78 0 0 0 .558-.405l2.95-5.592z" />
        </symbol>
        <symbol id="favoritepressed" viewBox="0 0 25 25">
            <path
                d="M12.5 10.265 11.103 7.47c-.347-.692-.948-1.688-1.8-2.492-.838-.792-1.841-1.331-3.053-1.331-2.619 0-4.688 2.072-4.688 4.563 0 1.892.866 3.228 2.919 5.266a91.808 91.808 0 0 0 1.791 1.708c1.731 1.625 3.884 3.647 6.228 6.35 2.344-2.703 4.497-4.725 6.228-6.35a89.163 89.163 0 0 0 1.791-1.708c2.053-2.037 2.919-3.373 2.919-5.266 0-2.491-2.069-4.563-4.688-4.563-1.214 0-2.216.539-3.053 1.331-.852.805-1.453 1.8-1.8 2.492L12.5 10.265zm.612 12.956a.798.798 0 0 1-.951.21.798.798 0 0 1-.275-.21c-2.502-2.972-4.766-5.097-6.63-6.845-3.227-3.03-5.258-4.934-5.258-8.167 0-3.383 2.797-6.125 6.25-6.125 2.5 0 4.248 1.641 5.319 3.137.406.57.716 1.119.931 1.55.271-.54.582-1.058.931-1.55 1.07-1.498 2.819-3.137 5.319-3.137 3.453 0 6.25 2.742 6.25 6.125 0 3.233-2.031 5.138-5.258 8.167-1.864 1.75-4.128 3.877-6.63 6.845z" />
        </symbol>
        <symbol id="Vector-5" viewBox="0 0 22 25">
            <path d="M0 5.303V0h21.07v5.303h-7.292v18.939H7.291V5.303H-.001z" />
        </symbol>
        <symbol id="Vector-4" viewBox="0 0 17 25">
            <path
                d="M.942 24.053V1.326h7.931v4.321h.237c.414-1.598 1.07-2.767 1.968-3.507.907-.74 1.968-1.11 3.181-1.11.355 0 .705.03 1.051.089.355.049.695.123 1.021.222V8.31c-.404-.138-.903-.242-1.494-.311s-1.1-.104-1.524-.104c-.799 0-1.519.182-2.16.547a3.858 3.858 0 0 0-1.494 1.509c-.365.641-.547 1.396-.547 2.264v11.837H.944z" />
        </symbol>
        <symbol id="Vector-3" viewBox="0 0 23 25">
            <path
                d="M8.45 24.408c-1.45 0-2.732-.237-3.847-.71-1.105-.483-1.973-1.213-2.604-2.19s-.947-2.22-.947-3.729c0-1.243.212-2.303.636-3.181.424-.888 1.016-1.613 1.776-2.175s1.642-.991 2.649-1.287a16.07 16.07 0 0 1 3.285-.577c1.273-.099 2.293-.217 3.063-.355.779-.148 1.342-.35 1.687-.607.345-.266.518-.617.518-1.051v-.059c0-.592-.227-1.046-.681-1.361s-1.036-.473-1.746-.473c-.779 0-1.416.173-1.909.518-.483.335-.774.853-.873 1.554H1.94a7.75 7.75 0 0 1 1.317-3.817c.789-1.174 1.938-2.111 3.448-2.811 1.509-.71 3.393-1.065 5.652-1.065 1.628 0 3.088.192 4.38.577 1.292.375 2.392.903 3.3 1.583.907.671 1.598 1.46 2.071 2.367.483.898.725 1.874.725 2.93v15.566h-7.635v-3.196h-.178c-.454.848-1.006 1.534-1.657 2.057a6.095 6.095 0 0 1-2.205 1.139c-.819.237-1.721.355-2.708.355zm2.663-5.149a4.03 4.03 0 0 0 1.746-.385c.552-.256 1.001-.626 1.346-1.11s.518-1.07.518-1.761v-1.894a9.444 9.444 0 0 1-.695.252 13.923 13.923 0 0 1-1.627.414 21.52 21.52 0 0 1-.932.163c-.631.099-1.149.261-1.554.488-.395.217-.691.488-.888.814a2.052 2.052 0 0 0-.281 1.065c0 .631.222 1.115.666 1.45s1.011.503 1.702.503z" />
        </symbol>
        <symbol id="Vector-2" viewBox="0 0 27 25">
            <path d="m26.743 1.326-7.635 22.727h-9.47L2.003 1.326h8.582l3.67 15.033h.237l3.67-15.033h8.582z" />
        </symbol>
        <symbol id="Vector-1" viewBox="0 0 25 25">
            <path
                d="M13.014 24.467c-2.427 0-4.518-.464-6.274-1.391a9.745 9.745 0 0 1-4.039-4.025c-.937-1.756-1.406-3.857-1.406-6.303 0-2.348.473-4.399 1.42-6.155s2.284-3.122 4.01-4.099c1.726-.977 3.763-1.465 6.111-1.465 1.716 0 3.27.266 4.661.799s2.58 1.307 3.566 2.323c.986 1.006 1.746 2.229 2.279 3.67s.799 3.063.799 4.868v1.894H3.84v-4.498h12.784c-.01-.651-.178-1.223-.503-1.716A3.209 3.209 0 0 0 14.834 7.2c-.533-.286-1.139-.429-1.82-.429-.661 0-1.268.143-1.82.429a3.447 3.447 0 0 0-1.332 1.154c-.326.493-.498 1.07-.518 1.731v4.853c0 .73.153 1.381.459 1.953s.745 1.021 1.317 1.346c.572.326 1.263.488 2.072.488a4.75 4.75 0 0 0 1.539-.237 3.466 3.466 0 0 0 1.213-.681c.335-.306.582-.671.74-1.095h7.457c-.256 1.578-.863 2.949-1.82 4.113-.957 1.154-2.224 2.052-3.803 2.693-1.568.631-3.403.947-5.504.947z" />
        </symbol>
        <symbol id="Vector" viewBox="0 0 4 15">
            <path d="M7.513 0v24.243H.979V0h6.534z" />
        </symbol>
        <symbol id="Vector-51" viewBox="0 0 23 25">
            <path d="M.751 5.303V0h21.07v5.303h-7.292v18.939H8.042V5.303H.75z" />
        </symbol>
        <symbol id="Vector-41" viewBox="0 0 19 25">
            <path
                d="M1.881 24.053V1.326h7.931v4.321h.237c.414-1.598 1.07-2.767 1.968-3.507.908-.74 1.968-1.11 3.181-1.11.355 0 .705.03 1.051.089.355.049.695.123 1.021.222V8.31c-.404-.138-.903-.242-1.494-.311s-1.1-.104-1.524-.104c-.799 0-1.519.182-2.16.547a3.858 3.858 0 0 0-1.494 1.509c-.365.641-.547 1.396-.547 2.264v11.837H1.883z" />
        </symbol>
        <symbol id="Vector-31" viewBox="0 0 25 25">
            <path
                d="M16.768 14.11V1.326h8.168v22.727h-7.753v-4.32h-.237c-.493 1.45-1.356 2.584-2.589 3.403-1.233.809-2.698 1.213-4.395 1.213-1.588 0-2.979-.365-4.173-1.095-1.184-.73-2.106-1.736-2.767-3.018-.651-1.282-.981-2.752-.991-4.409v-14.5h8.168v12.784c.01 1.125.296 2.007.858 2.649.572.641 1.371.962 2.397.962.681 0 1.268-.143 1.761-.429.503-.296.888-.71 1.154-1.243.276-.543.409-1.189.4-1.938z" />
        </symbol>
        <symbol id="Vector-21" viewBox="0 0 25 25">
            <path
                d="M13.789 24.467c-2.466 0-4.577-.488-6.333-1.465-1.756-.986-3.102-2.358-4.039-4.113-.937-1.766-1.406-3.813-1.406-6.141s.469-4.37 1.406-6.126a9.954 9.954 0 0 1 4.039-4.113c1.756-.986 3.867-1.48 6.333-1.48 2.229 0 4.158.404 5.785 1.213 1.637.799 2.905 1.933 3.803 3.403.898 1.46 1.351 3.176 1.361 5.149h-7.576c-.108-1.194-.454-2.101-1.036-2.723-.572-.631-1.312-.947-2.219-.947-.71 0-1.332.207-1.864.621-.533.404-.947 1.021-1.243 1.85-.296.819-.444 1.85-.444 3.092s.148 2.279.444 3.107c.296.819.71 1.435 1.243 1.85.533.404 1.154.607 1.864.607.602 0 1.134-.138 1.598-.414.464-.286.838-.7 1.125-1.243.296-.552.473-1.223.533-2.012h7.576c-.03 2.002-.488 3.748-1.376 5.238-.888 1.48-2.145 2.624-3.773 3.433-1.618.809-3.551 1.213-5.8 1.213z" />
        </symbol>
        <symbol id="Vector1" viewBox="0 0 25 25">
            <path
                d="M23.734 8.724h-7.517c-.039-.464-.202-.863-.488-1.199s-.656-.592-1.11-.769a3.776 3.776 0 0 0-1.48-.281c-.7 0-1.302.128-1.805.385s-.75.621-.74 1.095c-.01.335.133.646.429.932.306.286.893.508 1.761.666l4.616.829c2.328.424 4.059 1.139 5.194 2.145 1.144.996 1.721 2.333 1.731 4.01-.01 1.618-.493 3.023-1.45 4.217-.947 1.184-2.244 2.101-3.891 2.752-1.637.641-3.507.962-5.608.962-3.472 0-6.19-.71-8.153-2.131-1.953-1.42-3.043-3.295-3.27-5.623h8.108c.109.72.464 1.277 1.065 1.672.612.385 1.381.577 2.308.577.75 0 1.366-.128 1.85-.385.493-.256.745-.621.755-1.095-.01-.434-.227-.779-.651-1.036-.414-.256-1.065-.464-1.953-.621l-4.025-.71c-2.318-.404-4.054-1.174-5.208-2.308s-1.726-2.594-1.716-4.38c-.01-1.578.404-2.915 1.243-4.01.848-1.105 2.057-1.943 3.625-2.515 1.578-.582 3.448-.873 5.608-.873 3.285 0 5.874.681 7.768 2.042 1.904 1.361 2.905 3.245 3.004 5.652z" />
        </symbol>
        <symbol id="Vector-11" viewBox="0 0 22 25">
            <path
                d="m7.358 19.934.047-7.765h.852l4.403-6.108h7.339l-7.386 9.517h-1.847l-3.409 4.356zm-5.871 4.309V0h6.534v24.243H1.487zm11.221 0-4.167-7.197 4.261-4.64 7.386 11.837h-7.481z" />
        </symbol>
        <symbol id="Logo" viewBox="0 0 213 25">
            <path fill="#475467" style="fill: var(--color1, #475467)"
                d="M211.552 11.23h-5.637c-0.030-0.348-0.152-0.647-0.367-0.899-0.214-0.252-0.492-0.444-0.831-0.577-0.334-0.141-0.703-0.211-1.111-0.211-0.525 0-0.977 0.096-1.353 0.289-0.378 0.192-0.563 0.466-0.555 0.821-0.008 0.252 0.1 0.485 0.322 0.699 0.228 0.215 0.669 0.381 1.32 0.499l3.463 0.621c1.745 0.318 3.044 0.854 3.895 1.609 0.858 0.747 1.291 1.75 1.298 3.007-0.008 1.213-0.37 2.268-1.088 3.163-0.711 0.888-1.684 1.576-2.919 2.064-1.228 0.481-2.631 0.721-4.206 0.721-2.605 0-4.642-0.533-6.114-1.598-1.466-1.065-2.283-2.471-2.453-4.217h6.081c0.081 0.54 0.348 0.958 0.798 1.254 0.459 0.289 1.036 0.433 1.731 0.433 0.563 0 1.025-0.096 1.387-0.288 0.37-0.192 0.559-0.466 0.566-0.821-0.006-0.325-0.17-0.585-0.488-0.777-0.311-0.192-0.8-0.348-1.466-0.466l-3.017-0.533c-1.739-0.303-3.041-0.88-3.906-1.731s-1.295-1.946-1.287-3.285c-0.008-1.184 0.303-2.186 0.931-3.007 0.636-0.829 1.542-1.457 2.719-1.887 1.184-0.436 2.586-0.655 4.206-0.655 2.464 0 4.406 0.51 5.827 1.531 1.428 1.021 2.178 2.434 2.253 4.239z">
            </path>
            <path fill="#475467" style="fill: var(--color1, #475467)"
                d="M181.898 18.688l0.044-7.28h0.8l4.128-5.726h6.88l-6.925 8.922h-1.731l-3.195 4.084zM176.394 22.727v-22.727h6.127v22.727h-6.127zM186.914 22.727l-3.906-6.747 3.995-4.35 6.925 11.097h-7.014z">
            </path>
            <path fill="#475467" style="fill: var(--color1, #475467)"
                d="M165.030 23.038c-1.85 0-3.433-0.366-4.75-1.099-1.317-0.74-2.327-1.768-3.030-3.085-0.703-1.324-1.054-2.859-1.054-4.605s0.351-3.277 1.054-4.594c0.703-1.324 1.713-2.353 3.030-3.085 1.317-0.74 2.9-1.11 4.75-1.11 1.672 0 3.119 0.303 4.339 0.91 1.228 0.599 2.178 1.45 2.852 2.552 0.673 1.095 1.014 2.382 1.022 3.862h-5.683c-0.081-0.895-0.341-1.576-0.777-2.042-0.43-0.473-0.984-0.71-1.664-0.71-0.533 0-1 0.155-1.398 0.466-0.4 0.303-0.711 0.766-0.933 1.387-0.222 0.614-0.333 1.387-0.333 2.319s0.111 1.709 0.333 2.33c0.222 0.614 0.533 1.077 0.933 1.387 0.398 0.303 0.866 0.455 1.398 0.455 0.45 0 0.85-0.104 1.198-0.311 0.347-0.215 0.628-0.525 0.842-0.932 0.223-0.414 0.356-0.918 0.4-1.509h5.683c-0.023 1.502-0.367 2.811-1.033 3.928-0.666 1.11-1.609 1.968-2.83 2.575-1.214 0.607-2.664 0.91-4.35 0.91z">
            </path>
            <path fill="#475467" style="fill: var(--color1, #475467)"
                d="M146.951 15.27v-9.588h6.126v17.045h-5.815v-3.24h-0.178c-0.37 1.088-1.017 1.938-1.942 2.552-0.925 0.607-2.023 0.91-3.296 0.91-1.191 0-2.234-0.274-3.13-0.821-0.888-0.548-1.58-1.302-2.075-2.264-0.488-0.962-0.736-2.064-0.743-3.307v-10.875h6.126v9.588c0.007 0.843 0.222 1.506 0.644 1.986 0.429 0.481 1.028 0.721 1.798 0.721 0.51 0 0.951-0.107 1.321-0.322 0.377-0.222 0.666-0.533 0.866-0.932 0.207-0.407 0.307-0.891 0.3-1.454z">
            </path>
            <path fill="#475467" style="fill: var(--color1, #475467)"
                d="M121.723 22.727v-17.045h5.948v3.24h0.177c0.311-1.199 0.803-2.075 1.476-2.63 0.681-0.555 1.476-0.832 2.386-0.832 0.266 0 0.529 0.022 0.788 0.067 0.266 0.037 0.522 0.092 0.766 0.166v5.227c-0.303-0.104-0.677-0.181-1.121-0.233s-0.825-0.078-1.143-0.078c-0.599 0-1.139 0.137-1.62 0.411-0.474 0.266-0.847 0.644-1.121 1.132-0.274 0.481-0.411 1.047-0.411 1.698v8.878h-6.126z">
            </path>
            <path fill="#475467" style="fill: var(--color1, #475467)"
                d="M100.704 4.972v-4.972h19.753v4.972h-6.836v17.756h-6.081v-17.756h-6.836z"></path>
            <path fill="#101828" style="fill: var(--color2, #101828)" d="M97.668 0v22.727h-6.126v-22.727h6.126z"></path>
            <path fill="#101828" style="fill: var(--color2, #101828)"
                d="M80.073 23.038c-1.82 0-3.388-0.348-4.705-1.043-1.31-0.703-2.319-1.709-3.030-3.018-0.703-1.317-1.054-2.893-1.054-4.727 0-1.761 0.355-3.3 1.065-4.616s1.713-2.342 3.007-3.074 2.823-1.099 4.583-1.099c1.287 0 2.452 0.2 3.496 0.599s1.935 0.98 2.674 1.742c0.74 0.755 1.31 1.672 1.709 2.752s0.599 2.297 0.599 3.651v1.42h-15.225v-3.374h9.588c-0.007-0.488-0.133-0.917-0.377-1.287-0.237-0.377-0.559-0.67-0.965-0.877-0.4-0.215-0.855-0.322-1.365-0.322-0.496 0-0.951 0.107-1.365 0.322-0.414 0.207-0.747 0.496-0.999 0.866-0.244 0.37-0.374 0.803-0.388 1.298v3.64c0 0.548 0.115 1.036 0.344 1.465s0.559 0.766 0.988 1.010c0.429 0.244 0.947 0.366 1.554 0.366 0.422 0 0.806-0.059 1.154-0.178 0.355-0.118 0.658-0.288 0.91-0.51 0.252-0.229 0.437-0.503 0.555-0.821h5.593c-0.192 1.184-0.647 2.212-1.365 3.085-0.718 0.866-1.668 1.539-2.852 2.020-1.176 0.473-2.552 0.71-4.128 0.71z">
            </path>
            <path fill="#101828" style="fill: var(--color2, #101828)"
                d="M70.057 5.682l-5.726 17.045h-7.102l-5.726-17.045h6.436l2.752 11.275h0.178l2.752-11.275h6.437z">
            </path>
            <path fill="#101828" style="fill: var(--color2, #101828)"
                d="M39.15 22.994c-1.087 0-2.049-0.178-2.885-0.533-0.829-0.363-1.48-0.91-1.953-1.642s-0.71-1.665-0.71-2.797c0-0.932 0.159-1.727 0.477-2.386 0.318-0.666 0.762-1.21 1.332-1.631s1.232-0.744 1.986-0.965c0.762-0.222 1.583-0.366 2.464-0.433 0.954-0.074 1.72-0.163 2.297-0.266 0.585-0.111 1.006-0.263 1.265-0.455 0.259-0.2 0.388-0.462 0.388-0.788v-0.044c0-0.444-0.17-0.784-0.51-1.021s-0.777-0.355-1.31-0.355c-0.585 0-1.062 0.129-1.432 0.388-0.362 0.252-0.581 0.64-0.655 1.165h-5.638c0.074-1.036 0.403-1.99 0.988-2.863 0.592-0.88 1.454-1.583 2.586-2.108 1.132-0.533 2.545-0.799 4.239-0.799 1.221 0 2.316 0.144 3.285 0.433 0.969 0.281 1.794 0.677 2.475 1.187 0.681 0.503 1.198 1.095 1.554 1.776 0.363 0.673 0.544 1.406 0.544 2.197v11.674h-5.726v-2.397h-0.133c-0.34 0.636-0.755 1.15-1.243 1.543-0.481 0.392-1.032 0.677-1.654 0.855-0.614 0.177-1.291 0.266-2.031 0.266zM41.148 19.132c0.466 0 0.903-0.096 1.31-0.289 0.414-0.192 0.751-0.47 1.010-0.832s0.388-0.803 0.388-1.32v-1.421c-0.163 0.067-0.337 0.129-0.522 0.189-0.178 0.059-0.37 0.115-0.577 0.166-0.2 0.052-0.414 0.1-0.644 0.144-0.222 0.044-0.455 0.085-0.699 0.122-0.473 0.074-0.862 0.196-1.165 0.366-0.296 0.163-0.518 0.366-0.666 0.61-0.141 0.237-0.211 0.503-0.211 0.799 0 0.473 0.166 0.836 0.499 1.087s0.758 0.377 1.276 0.377z">
            </path>
            <path fill="#101828" style="fill: var(--color2, #101828)"
                d="M21.019 22.727v-17.045h5.948v3.24h0.178c0.311-1.199 0.803-2.075 1.476-2.63 0.681-0.555 1.476-0.832 2.386-0.832 0.266 0 0.529 0.022 0.788 0.067 0.266 0.037 0.522 0.092 0.766 0.166v5.227c-0.303-0.104-0.677-0.181-1.121-0.233s-0.825-0.078-1.143-0.078c-0.599 0-1.139 0.137-1.62 0.411-0.474 0.266-0.847 0.644-1.121 1.132-0.274 0.481-0.41 1.047-0.41 1.698v8.878h-6.126z">
            </path>
            <path fill="#101828" style="fill: var(--color2, #101828)"
                d="M0 4.972v-4.972h19.753v4.972h-6.836v17.756h-6.081v-17.756h-6.836z"></path>
        </symbol>
    </defs>
</svg>