<svg xmlns="http://www.w3.org/2000/svg" aria-hidden="true" style="position:absolute;width:0;height:0;overflow:hidden">
    <defs>
        <symbol id="truck" viewBox="0 0 25 25">
            <path
                d="m25 14.063-3.125-6.25h-4.688V4.688c0-.859-.703-1.563-1.563-1.563H1.561c-.859 0-1.563.703-1.563 1.563v12.5l1.563 1.563h1.982a3.125 3.125 0 1 0 5.412 0h8.651a3.125 3.125 0 1 0 5.412 0H25v-4.688zm-7.812 0V9.375h3.239l2.344 4.688h-5.583z" />
        </symbol>
        <symbol id="bi_grid" viewBox="0 0 25 25">
            <path
                d="M1.563 3.906a2.343 2.343 0 0 1 2.343-2.343h4.688a2.343 2.343 0 0 1 2.343 2.343v4.688a2.343 2.343 0 0 1-2.343 2.343H3.906a2.343 2.343 0 0 1-2.343-2.343V3.906zm2.343-.781a.778.778 0 0 0-.781.781v4.688a.778.778 0 0 0 .781.781h4.688a.778.778 0 0 0 .781-.781V3.906a.778.778 0 0 0-.781-.781H3.906zm10.157.781a2.343 2.343 0 0 1 2.343-2.343h4.688a2.343 2.343 0 0 1 2.343 2.343v4.688a2.343 2.343 0 0 1-2.343 2.343h-4.688a2.343 2.343 0 0 1-2.343-2.343V3.906zm2.343-.781a.778.778 0 0 0-.781.781v4.688a.778.778 0 0 0 .781.781h4.688a.778.778 0 0 0 .781-.781V3.906a.778.778 0 0 0-.781-.781h-4.688zM1.563 16.406a2.343 2.343 0 0 1 2.343-2.343h4.688a2.343 2.343 0 0 1 2.343 2.343v4.688a2.343 2.343 0 0 1-2.343 2.343H3.906a2.343 2.343 0 0 1-2.343-2.343v-4.688zm2.343-.781a.778.778 0 0 0-.781.781v4.688a.778.778 0 0 0 .781.781h4.688a.778.778 0 0 0 .781-.781v-4.688a.778.778 0 0 0-.781-.781H3.906zm10.157.781a2.343 2.343 0 0 1 2.343-2.343h4.688a2.343 2.343 0 0 1 2.343 2.343v4.688a2.343 2.343 0 0 1-2.343 2.343h-4.688a2.343 2.343 0 0 1-2.343-2.343v-4.688zm2.343-.781a.778.778 0 0 0-.781.781v4.688a.778.778 0 0 0 .781.781h4.688a.778.778 0 0 0 .781-.781v-4.688a.778.778 0 0 0-.781-.781h-4.688z" />
        </symbol>
        <symbol id="bi_grid-1x2" viewBox="0 0 25 25">
            <path
                d="M9.375 1.563H1.562v21.875h7.813V1.563zm14.063 0h-7.813v7.813h7.813V1.563zm0 14.062v7.813h-7.813v-7.813h7.813zM0 1.563A1.564 1.564 0 0 1 1.563 0h7.813a1.564 1.564 0 0 1 1.563 1.563v21.875a1.564 1.564 0 0 1-1.563 1.563H1.563A1.564 1.564 0 0 1 0 23.438V1.563zm14.063 0A1.564 1.564 0 0 1 15.626 0h7.813a1.564 1.564 0 0 1 1.563 1.563v7.813a1.564 1.564 0 0 1-1.563 1.563h-7.813a1.564 1.564 0 0 1-1.563-1.563V1.563zm1.562 12.5a1.564 1.564 0 0 0-1.563 1.563v7.813a1.564 1.564 0 0 0 1.563 1.563h7.813a1.564 1.564 0 0 0 1.563-1.563v-7.813a1.564 1.564 0 0 0-1.563-1.563h-7.813z" />
        </symbol>
        <symbol id="bi_grid-3x3-gap" viewBox="0 0 25 25">
            <path
                d="M6.25 3.125V6.25H3.125V3.125H6.25zm1.563 18.75V18.75a1.564 1.564 0 0 0-1.563-1.563H3.125a1.564 1.564 0 0 0-1.563 1.563v3.125a1.564 1.564 0 0 0 1.563 1.563H6.25a1.564 1.564 0 0 0 1.563-1.563zm0-7.812v-3.125A1.564 1.564 0 0 0 6.25 9.375H3.125a1.564 1.564 0 0 0-1.563 1.563v3.125a1.564 1.564 0 0 0 1.563 1.563H6.25a1.564 1.564 0 0 0 1.563-1.563zm0-7.813V3.125A1.564 1.564 0 0 0 6.25 1.562H3.125a1.564 1.564 0 0 0-1.563 1.563V6.25a1.564 1.564 0 0 0 1.563 1.563H6.25A1.564 1.564 0 0 0 7.813 6.25zm7.812 15.625V18.75a1.564 1.564 0 0 0-1.563-1.563h-3.125a1.564 1.564 0 0 0-1.563 1.563v3.125a1.564 1.564 0 0 0 1.563 1.563h3.125a1.564 1.564 0 0 0 1.563-1.563zm0-7.812v-3.125a1.564 1.564 0 0 0-1.563-1.563h-3.125a1.564 1.564 0 0 0-1.563 1.563v3.125a1.564 1.564 0 0 0 1.563 1.563h3.125a1.564 1.564 0 0 0 1.563-1.563zm0-7.813V3.125a1.564 1.564 0 0 0-1.563-1.563h-3.125a1.564 1.564 0 0 0-1.563 1.563V6.25a1.564 1.564 0 0 0 1.563 1.563h3.125a1.564 1.564 0 0 0 1.563-1.563zm-1.562-3.125V6.25h-3.125V3.125h3.125zm7.812 0V6.25H18.75V3.125h3.125zM6.25 10.938v3.125H3.125v-3.125H6.25zm7.813 0v3.125h-3.125v-3.125h3.125zm7.812 0H18.75v3.125h3.125v-3.125zM6.25 18.75v3.125H3.125V18.75H6.25zm7.813 0v3.125h-3.125V18.75h3.125zm7.812 0v3.125H18.75V18.75h3.125zM18.75 1.563a1.564 1.564 0 0 0-1.563 1.563v3.125a1.564 1.564 0 0 0 1.563 1.563h3.125a1.564 1.564 0 0 0 1.563-1.563V3.126a1.564 1.564 0 0 0-1.563-1.563H18.75zm-1.562 9.375a1.564 1.564 0 0 1 1.563-1.563h3.125a1.564 1.564 0 0 1 1.563 1.563v3.125a1.564 1.564 0 0 1-1.563 1.563h-3.125a1.564 1.564 0 0 1-1.563-1.563v-3.125zm1.562 6.25a1.564 1.564 0 0 0-1.563 1.563v3.125a1.564 1.564 0 0 0 1.563 1.563h3.125a1.564 1.564 0 0 0 1.563-1.563v-3.125a1.564 1.564 0 0 0-1.563-1.563H18.75z" />
        </symbol>
        <symbol id="cup-hot" viewBox="0 0 25 25">
            <path
                d="M.781 9.375a.778.778 0 0 0-.609.292.777.777 0 0 0-.154.657L2.599 21.94A3.903 3.903 0 0 0 6.412 25h9.05a3.911 3.911 0 0 0 3.813-3.06l.205-.922a4.686 4.686 0 0 0 4.858-7.058 4.685 4.685 0 0 0-2.827-2.089l.345-1.547a.777.777 0 0 0-.424-.872.789.789 0 0 0-.338-.077H.781zm19.532 10.156c-.165 0-.33-.013-.494-.039l1.355-6.091a3.124 3.124 0 0 1 2.227 3.438 3.127 3.127 0 0 1-3.088 2.692zM4.125 21.602l-2.37-10.664h18.366l-2.37 10.664a2.345 2.345 0 0 1-2.287 1.836h-9.05a2.34 2.34 0 0 1-2.287-1.836zM6.875 1.25l-.005.006-.022.03c-.114.156-.22.318-.319.484a3.13 3.13 0 0 0-.22.417c-.041.094-.053.144-.058.161v.006a.948.948 0 0 0 .142.388c.117.208.278.425.481.695l.016.019c.184.247.406.542.578.848.175.313.344.711.344 1.164 0 .294-.102.575-.186.772-.09.209-.196.412-.316.606a7.9 7.9 0 0 1-.395.597l-.028.039-.008.013-.003.003a.778.778 0 0 1-1.094.157.778.778 0 0 1-.157-1.094l.005-.006.022-.03c.114-.156.22-.318.319-.484a3.13 3.13 0 0 0 .22-.417c.041-.094.053-.144.058-.161a.944.944 0 0 0-.141-.394 6.156 6.156 0 0 0-.483-.695l-.016-.019a7.87 7.87 0 0 1-.578-.848 2.394 2.394 0 0 1-.344-1.164c0-.294.102-.575.186-.772.092-.216.209-.428.316-.606.124-.204.256-.403.395-.597l.039-.055A.778.778 0 0 1 6.717.156a.778.778 0 0 1 .157 1.094zm4.688 0-.005.006-.022.03c-.114.156-.22.318-.319.484a3.13 3.13 0 0 0-.22.417c-.041.094-.053.144-.058.161v.006a.948.948 0 0 0 .142.388c.117.208.278.425.481.695l.016.019c.184.247.406.542.578.848.175.313.344.711.344 1.164 0 .294-.102.575-.186.772-.09.209-.196.412-.316.606a7.9 7.9 0 0 1-.395.597l-.028.039-.008.013-.003.003a.778.778 0 0 1-1.094.157.778.778 0 0 1-.157-1.094l.005-.006.022-.03c.114-.156.22-.318.319-.484a3.13 3.13 0 0 0 .22-.417c.041-.094.053-.144.058-.161a.944.944 0 0 0-.141-.394 6.156 6.156 0 0 0-.483-.695l-.016-.019a7.87 7.87 0 0 1-.578-.848 2.394 2.394 0 0 1-.344-1.164c0-.294.102-.575.186-.772.092-.216.209-.428.316-.606.124-.204.256-.403.395-.597l.039-.055a.778.778 0 0 1 1.094-.157.778.778 0 0 1 .157 1.094zm4.687 0-.005.006-.022.03c-.114.156-.22.318-.319.484a3.13 3.13 0 0 0-.22.417c-.041.094-.053.144-.058.161v.006a.948.948 0 0 0 .142.388c.117.208.278.425.481.695l.016.019c.184.247.406.542.578.848.175.313.344.711.344 1.164 0 .294-.102.575-.186.772-.09.209-.196.412-.316.606a7.595 7.595 0 0 1-.394.597l-.03.039-.008.013-.003.003a.778.778 0 0 1-1.094.157.778.778 0 0 1-.157-1.094l.005-.006.022-.03c.114-.156.22-.318.319-.484a3.13 3.13 0 0 0 .22-.417c.041-.094.053-.144.058-.161a.944.944 0 0 0-.141-.394 6.156 6.156 0 0 0-.483-.695l-.016-.019a7.87 7.87 0 0 1-.578-.848 2.394 2.394 0 0 1-.344-1.164c0-.294.102-.575.186-.772.092-.216.209-.428.316-.606.124-.204.256-.403.395-.597l.039-.055a.778.778 0 0 1 1.094-.157.778.778 0 0 1 .157 1.094z" />
        </symbol>
        <symbol id="diagram" viewBox="0 0 25 25">
            <path
                d="M9.375 5.469a2.343 2.343 0 0 1 2.343-2.343h1.563a2.343 2.343 0 0 1 2.343 2.343v1.563a2.343 2.343 0 0 1-2.343 2.343v1.563h8.594a.778.778 0 0 1 .781.781v1.563a.778.778 0 0 1-.781.781.778.778 0 0 1-.781-.781v-.781h-7.813v.781a.778.778 0 0 1-.781.781.778.778 0 0 1-.781-.781v-.781H3.906v.781a.778.778 0 0 1-.781.781.778.778 0 0 1-.781-.781v-1.563a.778.778 0 0 1 .781-.781h8.594V9.375a2.343 2.343 0 0 1-2.343-2.343V5.469zm3.906 2.344a.778.778 0 0 0 .781-.781V5.469a.778.778 0 0 0-.781-.781h-1.563a.778.778 0 0 0-.781.781v1.563a.778.778 0 0 0 .781.781h1.563zM0 17.969a2.343 2.343 0 0 1 2.343-2.343h1.563a2.343 2.343 0 0 1 2.343 2.343v1.563a2.343 2.343 0 0 1-2.343 2.343H2.343A2.343 2.343 0 0 1 0 19.532v-1.563zm2.344-.781a.778.778 0 0 0-.781.781v1.563a.778.778 0 0 0 .781.781h1.563a.778.778 0 0 0 .781-.781v-1.563a.778.778 0 0 0-.781-.781H2.344zm7.031.781a2.343 2.343 0 0 1 2.343-2.343h1.563a2.343 2.343 0 0 1 2.343 2.343v1.563a2.343 2.343 0 0 1-2.343 2.343h-1.563a2.343 2.343 0 0 1-2.343-2.343v-1.563zm2.344-.781a.778.778 0 0 0-.781.781v1.563a.778.778 0 0 0 .781.781h1.563a.778.778 0 0 0 .781-.781v-1.563a.778.778 0 0 0-.781-.781h-1.563zm7.031.781a2.343 2.343 0 0 1 2.343-2.343h1.563a2.343 2.343 0 0 1 2.343 2.343v1.563a2.343 2.343 0 0 1-2.343 2.343h-1.563a2.343 2.343 0 0 1-2.343-2.343v-1.563zm2.344-.781a.778.778 0 0 0-.781.781v1.563a.778.778 0 0 0 .781.781h1.563a.778.778 0 0 0 .781-.781v-1.563a.778.778 0 0 0-.781-.781h-1.563z" />
        </symbol>
        <symbol id="hugeicons_gas-stove" viewBox="0 0 25 25">
            <path stroke-linecap="round" stroke-linejoin="round" stroke-width="1.875"
                d="M6.25 19.792h4.167m8.333.009v-.009M2.083 6.25c0-3.448.719-4.167 4.167-4.167h12.5c3.448 0 4.167.719 4.167 4.167v12.5c0 3.448-.719 4.167-4.167 4.167H6.25c-3.448 0-4.167-.719-4.167-4.167V6.25z" />
            <path stroke-linecap="round" stroke-linejoin="round" stroke-width="1.875"
                d="M12.5 14.583a4.167 4.167 0 1 0 0-8.334 4.167 4.167 0 0 0 0 8.334zM16.146 10.417h1.563M12.5 14.063v1.563m-3.646-5.209H7.292M12.5 6.771V5.208" />
        </symbol>
        <symbol id="ion_water-outline" viewBox="0 0 25 25">
            <path stroke-miterlimit="10" stroke-width="1.563"
                d="M19.531 15.625c0 4.315-2.716 7.031-7.031 7.031s-7.031-2.716-7.031-7.031c0-4.63 5.041-10.881 6.586-12.689a.582.582 0 0 1 .69-.151.595.595 0 0 1 .2.151c1.545 1.808 6.586 8.059 6.586 12.689z" />
            <path stroke-linecap="round" stroke-linejoin="round" stroke-width="1.563"
                d="M16.797 16.016a3.513 3.513 0 0 1-3.516 3.516" />
        </symbol>
        <symbol id="lucide_microwave" viewBox="0 0 25 25">
            <path stroke-linecap="round" stroke-linejoin="round" stroke-width="1.563"
                d="M20.833 4.167H4.166A2.083 2.083 0 0 0 2.083 6.25v11.458c0 1.151.933 2.083 2.083 2.083h16.667a2.083 2.083 0 0 0 2.083-2.083V6.25a2.083 2.083 0 0 0-2.083-2.083z" />
            <path stroke-linecap="round" stroke-linejoin="round" stroke-width="1.563"
                d="M13.542 8.333h-6.25c-.575 0-1.042.466-1.042 1.042v5.208c0 .575.466 1.042 1.042 1.042h6.25c.575 0 1.042-.466 1.042-1.042V9.375c0-.575-.466-1.042-1.042-1.042zM18.75 8.333v7.292m-12.5 4.167v2.083m12.5-2.083v2.083" />
        </symbol>
        <symbol id="ph_shower" viewBox="0 0 25 25">
            <path
                d="M6.25 23.047a1.17 1.17 0 0 1-.724 1.083 1.171 1.171 0 1 1-.448-2.255 1.172 1.172 0 0 1 1.172 1.172zm1.953-4.297a1.17 1.17 0 0 0-1.083.724 1.171 1.171 0 1 0 2.255.448 1.172 1.172 0 0 0-1.172-1.172zm-6.25 0a1.17 1.17 0 0 0-1.083.724 1.171 1.171 0 1 0 1.082-.724zm3.125-3.125a1.17 1.17 0 0 0-1.083.724 1.171 1.171 0 1 0 2.255.448 1.172 1.172 0 0 0-1.172-1.172zM25 3.906a.778.778 0 0 1-.781.781h-2.802l-2.72 2.721-2.115 12.382a1.565 1.565 0 0 1-1.909 1.259 1.559 1.559 0 0 1-.736-.414l-9.57-9.57a1.567 1.567 0 0 1-.383-1.582 1.565 1.565 0 0 1 1.232-1.064l12.377-2.116 2.949-2.949a.774.774 0 0 1 .553-.228h3.125a.778.778 0 0 1 .781.781zm-7.987 4.081L5.469 9.961l9.57 9.57 1.974-11.544z" />
        </symbol>
        <symbol id="solar_fridge-outline" viewBox="0 0 25 25">
            <path
                d="M18.49 7.292a.778.778 0 0 0-.781-.781.778.778 0 0 0-.781.781v2.083a.778.778 0 0 0 .781.781.778.778 0 0 0 .781-.781V7.292zm0 7.291a.778.778 0 0 0-.781-.781.778.778 0 0 0-.781.781v2.083a.778.778 0 0 0 .781.781.778.778 0 0 0 .781-.781v-2.083z" />
            <path
                d="M12.558 1.302h-.117c-1.915 0-3.431 0-4.618.159-1.221.165-2.209.51-2.99 1.29-.779.78-1.125 1.769-1.29 2.99-.159 1.188-.159 2.703-.159 4.618v3.242c0 1.915 0 3.431.159 4.618.165 1.221.51 2.209 1.29 2.99.479.478 1.035.793 1.676 1.003v.706c0 .431.35.781.781.781h1.042a.778.778 0 0 0 .781-.781v-.308c.945.048 2.047.048 3.327.048h.117c1.281 0 2.382 0 3.327-.048v.308c0 .431.35.781.781.781h1.042a.778.778 0 0 0 .781-.781v-.706c.641-.21 1.198-.525 1.676-1.003.779-.78 1.125-1.769 1.29-2.99.159-1.187.159-2.703.159-4.618V10.36c0-1.915 0-3.431-.159-4.618-.165-1.221-.51-2.209-1.29-2.99-.78-.779-1.769-1.125-2.99-1.29-1.187-.159-2.703-.159-4.618-.159zM5.94 3.856c.441-.441 1.045-.705 2.093-.846 1.071-.144 2.481-.146 4.468-.146s3.398.002 4.469.146c1.047.141 1.651.405 2.092.846s.705 1.045.846 2.093c.144 1.071.146 2.481.146 4.468v.781H4.95v-.781c0-1.986.002-3.397.146-4.469.141-1.047.405-1.651.846-2.092zm-.992 8.904h15.104v.781c0 1.986-.002 3.398-.146 4.469-.141 1.047-.405 1.651-.846 2.092s-1.045.705-2.093.846c-1.071.144-2.481.146-4.468.146s-3.397-.002-4.469-.146c-1.047-.141-1.651-.405-2.092-.846s-.705-1.045-.846-2.093c-.144-1.07-.146-2.481-.146-4.468v-.781z" />
        </symbol>
        <symbol id="tv" viewBox="0 0 25 25">
            <path
                d="M0 6.25s0-3.125 3.125-3.125h18.75S25 3.125 25 6.25v9.375s0 3.125-3.125 3.125h-6.25c0 1.042.13 1.823.391 2.344h1.172a.778.778 0 0 1 .781.781.778.778 0 0 1-.781.781H7.813a.778.778 0 0 1-.781-.781.778.778 0 0 1 .781-.781h1.172c.26-.521.391-1.302.391-2.344h-6.25s-3.125 0-3.125-3.125V6.25zm2.184-1.336c-.172.12-.308.282-.397.472a2.341 2.341 0 0 0-.225.88v9.359c0 .508.122.784.227.941.109.162.267.295.472.397.264.126.549.202.841.223l.039.002h18.734c.508 0 .784-.122.941-.227.172-.12.308-.282.397-.472.126-.264.202-.549.223-.841l.002-.039V6.25c0-.508-.122-.784-.227-.941a1.188 1.188 0 0 0-.472-.397 2.341 2.341 0 0 0-.88-.225H3.125c-.508 0-.784.122-.941.227z" />
        </symbol>
        <symbol id="wind" viewBox="0 0 25 25">
            <path
                d="M19.531 3.125a3.907 3.907 0 0 0-3.906 3.906.778.778 0 0 1-.781.781.778.778 0 0 1-.781-.781 5.466 5.466 0 0 1 3.376-5.052 5.469 5.469 0 1 1 2.094 10.522H.783a.778.778 0 0 1-.781-.781.778.778 0 0 1 .781-.781h18.75a3.907 3.907 0 0 0 0-7.812zM8.594 4.688a1.564 1.564 0 0 0-1.563 1.563.778.778 0 0 1-.781.781.778.778 0 0 1-.781-.781 3.12 3.12 0 0 1 1.929-2.887 3.127 3.127 0 0 1 4.261 2.277 3.12 3.12 0 0 1-1.329 3.208 3.128 3.128 0 0 1-1.736.527H.781A.778.778 0 0 1 0 8.595a.778.778 0 0 1 .781-.781h7.813a1.564 1.564 0 0 0 0-3.126zM0 14.844a.778.778 0 0 1 .781-.781h15.691a4.688 4.688 0 1 1-4.688 4.688.778.778 0 0 1 .781-.781.778.778 0 0 1 .781.781 3.12 3.12 0 0 0 1.929 2.887 3.127 3.127 0 0 0 4.261-2.277 3.12 3.12 0 0 0-1.329-3.208 3.128 3.128 0 0 0-1.736-.527H.78a.778.778 0 0 1-.781-.781z" />
        </symbol>
        <symbol id="starDefault" viewBox="0 0 25 25">
            <path
                d="M11.809 1.31a.781.781 0 0 1 1.382 0l2.95 5.592a.78.78 0 0 0 .558.405l6.23 1.078a.781.781 0 0 1 .427 1.314l-4.407 4.534a.78.78 0 0 0-.213.656l.9 6.258a.78.78 0 0 1-1.118.812l-5.674-2.79a.78.78 0 0 0-.689 0l-5.674 2.79a.781.781 0 0 1-1.118-.812l.9-6.258a.783.783 0 0 0-.213-.656L1.643 9.699a.781.781 0 0 1 .427-1.314L8.3 7.307a.78.78 0 0 0 .558-.405l2.95-5.592z" />
        </symbol>
        <symbol id="favoritepressed" viewBox="0 0 25 25">
            <path
                d="M12.5 10.265 11.103 7.47c-.347-.692-.948-1.688-1.8-2.492-.838-.792-1.841-1.331-3.053-1.331-2.619 0-4.688 2.072-4.688 4.563 0 1.892.866 3.228 2.919 5.266a91.808 91.808 0 0 0 1.791 1.708c1.731 1.625 3.884 3.647 6.228 6.35 2.344-2.703 4.497-4.725 6.228-6.35a89.163 89.163 0 0 0 1.791-1.708c2.053-2.037 2.919-3.373 2.919-5.266 0-2.491-2.069-4.563-4.688-4.563-1.214 0-2.216.539-3.053 1.331-.852.805-1.453 1.8-1.8 2.492L12.5 10.265zm.612 12.956a.798.798 0 0 1-.951.21.798.798 0 0 1-.275-.21c-2.502-2.972-4.766-5.097-6.63-6.845-3.227-3.03-5.258-4.934-5.258-8.167 0-3.383 2.797-6.125 6.25-6.125 2.5 0 4.248 1.641 5.319 3.137.406.57.716 1.119.931 1.55.271-.54.582-1.058.931-1.55 1.07-1.498 2.819-3.137 5.319-3.137 3.453 0 6.25 2.742 6.25 6.125 0 3.233-2.031 5.138-5.258 8.167-1.864 1.75-4.128 3.877-6.63 6.845z" />
        </symbol>
    </defs>
</svg>